<?xml version="1.0" encoding="UTF-8" standalone="no"?>
<!DOCTYPE svg PUBLIC "-//W3C//DTD SVG 1.1//EN"
 "http://www.w3.org/Graphics/SVG/1.1/DTD/svg11.dtd">
<!-- Generated by graphviz version 13.1.0 (20250701.0955)
 -->
<!-- Title: News Intelligence Pipeline &#45; Local Development Pages: 1 -->
<svg width="3732pt" height="10930pt"
 viewBox="0.00 0.00 3732.00 10930.00" xmlns="http://www.w3.org/2000/svg" xmlns:xlink="http://www.w3.org/1999/xlink">
<g id="graph0" class="graph" transform="scale(4.16667 4.16667) rotate(0) translate(144 2479.2)">
<title>News Intelligence Pipeline &#45; Local Development</title>
<polygon fill="white" stroke="none" points="-144,144 -144,-2479.2 751.75,-2479.2 751.75,144 -144,144"/>
<text xml:space="preserve" text-anchor="middle" x="303.88" y="-8.9" font-family="Arial" font-size="28.00" fill="#2d3436">News Intelligence Pipeline &#45; Local Development</text>
<g id="clust1" class="cluster">
<title>cluster_External Data Sources</title>
<path fill="#e8f4fd" stroke="#aeb6be" d="M51.88,-2032.5C51.88,-2032.5 158.88,-2032.5 158.88,-2032.5 164.88,-2032.5 170.88,-2038.5 170.88,-2044.5 170.88,-2044.5 170.88,-2283.45 170.88,-2283.45 170.88,-2289.45 164.88,-2295.45 158.88,-2295.45 158.88,-2295.45 51.88,-2295.45 51.88,-2295.45 45.88,-2295.45 39.88,-2289.45 39.88,-2283.45 39.88,-2283.45 39.88,-2044.5 39.88,-2044.5 39.88,-2038.5 45.88,-2032.5 51.88,-2032.5"/>
<text xml:space="preserve" text-anchor="middle" x="105.62" y="-2280.05" font-family="Sans-Serif" font-size="12.00" fill="#2d3436">External Data Sources</text>
</g>
<g id="clust2" class="cluster">
<title>cluster_News Intelligence Pipeline</title>
<path fill="#f0f8f0" stroke="#aeb6be" d="M190.88,-423.7C190.88,-423.7 555.88,-423.7 555.88,-423.7 561.88,-423.7 567.88,-429.7 567.88,-435.7 567.88,-435.7 567.88,-2315.2 567.88,-2315.2 567.88,-2321.2 561.88,-2327.2 555.88,-2327.2 555.88,-2327.2 190.88,-2327.2 190.88,-2327.2 184.88,-2327.2 178.88,-2321.2 178.88,-2315.2 178.88,-2315.2 178.88,-435.7 178.88,-435.7 178.88,-429.7 184.88,-423.7 190.88,-423.7"/>
<text xml:space="preserve" text-anchor="middle" x="255.88" y="-2311.8" font-family="Sans-Serif" font-size="12.00" fill="#2d3436">News Intelligence Pipeline</text>
</g>
<g id="clust3" class="cluster">
<title>cluster_01. Data Ingestion Layer</title>
<path fill="#ebf3e7" stroke="#aeb6be" d="M198.88,-1632.3C198.88,-1632.3 320.88,-1632.3 320.88,-1632.3 326.88,-1632.3 332.88,-1638.3 332.88,-1644.3 332.88,-1644.3 332.88,-1883.25 332.88,-1883.25 332.88,-1889.25 326.88,-1895.25 320.88,-1895.25 320.88,-1895.25 198.88,-1895.25 198.88,-1895.25 192.88,-1895.25 186.88,-1889.25 186.88,-1883.25 186.88,-1883.25 186.88,-1644.3 186.88,-1644.3 186.88,-1638.3 192.88,-1632.3 198.88,-1632.3"/>
<text xml:space="preserve" text-anchor="middle" x="260.12" y="-1879.85" font-family="Sans-Serif" font-size="12.00" fill="#2d3436">01. Data Ingestion Layer</text>
</g>
<g id="clust4" class="cluster">
<title>cluster_02. Data Processing Layer</title>
<path fill="#ebf3e7" stroke="#aeb6be" d="M296.88,-1232.1C296.88,-1232.1 425.88,-1232.1 425.88,-1232.1 431.88,-1232.1 437.88,-1238.1 437.88,-1244.1 437.88,-1244.1 437.88,-1483.05 437.88,-1483.05 437.88,-1489.05 431.88,-1495.05 425.88,-1495.05 425.88,-1495.05 296.88,-1495.05 296.88,-1495.05 290.88,-1495.05 284.88,-1489.05 284.88,-1483.05 284.88,-1483.05 284.88,-1244.1 284.88,-1244.1 284.88,-1238.1 290.88,-1232.1 296.88,-1232.1"/>
<text xml:space="preserve" text-anchor="middle" x="361.5" y="-1479.65" font-family="Sans-Serif" font-size="12.00" fill="#2d3436">02. Data Processing Layer</text>
</g>
<g id="clust5" class="cluster">
<title>cluster_03. Data Storage Layer</title>
<path fill="#ebf3e7" stroke="#aeb6be" d="M357.88,-831.9C357.88,-831.9 470.88,-831.9 470.88,-831.9 476.88,-831.9 482.88,-837.9 482.88,-843.9 482.88,-843.9 482.88,-1082.85 482.88,-1082.85 482.88,-1088.85 476.88,-1094.85 470.88,-1094.85 470.88,-1094.85 357.88,-1094.85 357.88,-1094.85 351.88,-1094.85 345.88,-1088.85 345.88,-1082.85 345.88,-1082.85 345.88,-843.9 345.88,-843.9 345.88,-837.9 351.88,-831.9 357.88,-831.9"/>
<text xml:space="preserve" text-anchor="middle" x="414.62" y="-1079.45" font-family="Sans-Serif" font-size="12.00" fill="#2d3436">03. Data Storage Layer</text>
</g>
<g id="clust6" class="cluster">
<title>cluster_04. Configuration Layer</title>
<path fill="#ebf3e7" stroke="#aeb6be" d="M379.88,-2032.5C379.88,-2032.5 496.88,-2032.5 496.88,-2032.5 502.88,-2032.5 508.88,-2038.5 508.88,-2044.5 508.88,-2044.5 508.88,-2283.45 508.88,-2283.45 508.88,-2289.45 502.88,-2295.45 496.88,-2295.45 496.88,-2295.45 379.88,-2295.45 379.88,-2295.45 373.88,-2295.45 367.88,-2289.45 367.88,-2283.45 367.88,-2283.45 367.88,-2044.5 367.88,-2044.5 367.88,-2038.5 373.88,-2032.5 379.88,-2032.5"/>
<text xml:space="preserve" text-anchor="middle" x="438.5" y="-2280.05" font-family="Sans-Serif" font-size="12.00" fill="#2d3436">04. Configuration Layer</text>
</g>
<g id="clust7" class="cluster">
<title>cluster_05. Presentation Layer</title>
<path fill="#ebf3e7" stroke="#aeb6be" d="M358.88,-431.7C358.88,-431.7 468.88,-431.7 468.88,-431.7 474.88,-431.7 480.88,-437.7 480.88,-443.7 480.88,-443.7 480.88,-682.65 480.88,-682.65 480.88,-688.65 474.88,-694.65 468.88,-694.65 468.88,-694.65 358.88,-694.65 358.88,-694.65 352.88,-694.65 346.88,-688.65 346.88,-682.65 346.88,-682.65 346.88,-443.7 346.88,-443.7 346.88,-437.7 352.88,-431.7 358.88,-431.7"/>
<text xml:space="preserve" text-anchor="middle" x="414.12" y="-679.25" font-family="Sans-Serif" font-size="12.00" fill="#2d3436">05. Presentation Layer</text>
</g>
<!-- 3f39df13e03441d8b7c5e8f52978ff19 -->
<g id="node1" class="node">
<title>3f39df13e03441d8b7c5e8f52978ff19</title>
<image xlink:href="D:\Data Engineering\Projects\news_intelligence\.venv\Lib\site-packages\resources/generic/network\firewall.png" width="100.8px" height="100.8px" preserveAspectRatio="xMinYMin meet" x="62.475" y="-2202.5"/>
<text xml:space="preserve" text-anchor="middle" x="112.88" y="-2090.2" font-family="Arial Bold" font-size="14.00" fill="#2d3436">GNews API</text>
<text xml:space="preserve" text-anchor="middle" x="112.88" y="-2074.45" font-family="Arial Bold" font-size="14.00" fill="#2d3436">• 60,000+ Sources</text>
<text xml:space="preserve" text-anchor="middle" x="112.88" y="-2058.7" font-family="Arial Bold" font-size="14.00" fill="#2d3436">• Rate Limited</text>
<text xml:space="preserve" text-anchor="middle" x="112.88" y="-2042.95" font-family="Arial Bold" font-size="14.00" fill="#2d3436">• Real&#45;time</text>
</g>
<!-- 3b628f920455469ab3852dc0758379b7 -->
<g id="node2" class="node">
<title>3b628f920455469ab3852dc0758379b7</title>
<image xlink:href="D:\Data Engineering\Projects\news_intelligence\.venv\Lib\site-packages\resources/programming/language\python.png" width="100.8px" height="100.8px" preserveAspectRatio="xMinYMin meet" x="194.475" y="-1802.3"/>
<text xml:space="preserve" text-anchor="middle" x="244.88" y="-1690" font-family="Arial Bold" font-size="14.00" fill="#2d3436">ingest.py</text>
<text xml:space="preserve" text-anchor="middle" x="244.88" y="-1674.25" font-family="Arial Bold" font-size="14.00" fill="#2d3436">• Concurrent Processing</text>
<text xml:space="preserve" text-anchor="middle" x="244.88" y="-1658.5" font-family="Arial Bold" font-size="14.00" fill="#2d3436">• Error Handling</text>
<text xml:space="preserve" text-anchor="middle" x="244.88" y="-1642.75" font-family="Arial Bold" font-size="14.00" fill="#2d3436">• Rate Limiting</text>
</g>
<!-- 3f39df13e03441d8b7c5e8f52978ff19&#45;&gt;3b628f920455469ab3852dc0758379b7 -->
<g id="edge1" class="edge">
<title>3f39df13e03441d8b7c5e8f52978ff19&#45;&gt;3b628f920455469ab3852dc0758379b7</title>
<path fill="none" stroke="#2e86ab" stroke-width="2" d="M112.88,-2040.51C112.88,-1921.98 112.88,-1751.5 112.88,-1751.5 112.88,-1751.5 183.08,-1751.5 183.08,-1751.5"/>
<polygon fill="#2e86ab" stroke="#2e86ab" stroke-width="2" points="181.57,-1755 191.57,-1751.5 181.57,-1748 181.57,-1755"/>
<text xml:space="preserve" text-anchor="middle" x="215.12" y="-1956.15" font-family="Sans-Serif" font-size="13.00" fill="#2d3436">HTTP Requests</text>
<text xml:space="preserve" text-anchor="middle" x="215.12" y="-1939.65" font-family="Sans-Serif" font-size="13.00" fill="#2d3436">1 req/sec</text>
</g>
<!-- 88401559e5d8480a913a0f5aff53178d -->
<g id="node3" class="node">
<title>88401559e5d8480a913a0f5aff53178d</title>
<image xlink:href="D:\Data Engineering\Projects\news_intelligence\.venv\Lib\site-packages\resources/programming/language\python.png" width="100.8px" height="100.8px" preserveAspectRatio="xMinYMin meet" x="310.475" y="-1402.1"/>
<text xml:space="preserve" text-anchor="middle" x="360.88" y="-1289.8" font-family="Arial Bold" font-size="14.00" fill="#2d3436">transform.py</text>
<text xml:space="preserve" text-anchor="middle" x="360.88" y="-1274.05" font-family="Arial Bold" font-size="14.00" fill="#2d3436">• NLP &amp; Sentiment Analysis</text>
<text xml:space="preserve" text-anchor="middle" x="360.88" y="-1258.3" font-family="Arial Bold" font-size="14.00" fill="#2d3436">• Quality Validation</text>
<text xml:space="preserve" text-anchor="middle" x="360.88" y="-1242.55" font-family="Arial Bold" font-size="14.00" fill="#2d3436">• Keyword Extraction</text>
</g>
<!-- 3b628f920455469ab3852dc0758379b7&#45;&gt;88401559e5d8480a913a0f5aff53178d -->
<g id="edge2" class="edge">
<title>3b628f920455469ab3852dc0758379b7&#45;&gt;88401559e5d8480a913a0f5aff53178d</title>
<path fill="none" stroke="#a23b72" stroke-width="2" d="M295.03,-1714.5C321.88,-1714.5 349.48,-1714.5 349.48,-1714.5 349.48,-1714.5 349.48,-1474.53 349.48,-1474.53"/>
<polygon fill="#a23b72" stroke="#a23b72" stroke-width="2" points="352.98,-1476.04 349.48,-1466.04 345.98,-1476.04 352.98,-1476.04"/>
<text xml:space="preserve" text-anchor="middle" x="337.38" y="-1555.95" font-family="Sans-Serif" font-size="13.00" fill="#2d3436">Raw JSON Data</text>
<text xml:space="preserve" text-anchor="middle" x="337.38" y="-1539.45" font-family="Sans-Serif" font-size="13.00" fill="#2d3436">500+ articles/run</text>
</g>
<!-- 10fb1d6ea01d46138a6e51445390a135 -->
<g id="node4" class="node">
<title>10fb1d6ea01d46138a6e51445390a135</title>
<image xlink:href="D:\Data Engineering\Projects\news_intelligence\.venv\Lib\site-packages\resources/generic/database\sql.png" width="100.8px" height="100.8px" preserveAspectRatio="xMinYMin meet" x="363.475" y="-1001.9"/>
<text xml:space="preserve" text-anchor="middle" x="413.88" y="-889.6" font-family="Arial Bold" font-size="14.00" fill="#2d3436">storage.py</text>
<text xml:space="preserve" text-anchor="middle" x="413.88" y="-873.85" font-family="Arial Bold" font-size="14.00" fill="#2d3436">• SQLite Database</text>
<text xml:space="preserve" text-anchor="middle" x="413.88" y="-858.1" font-family="Arial Bold" font-size="14.00" fill="#2d3436">• Optimized Queries</text>
<text xml:space="preserve" text-anchor="middle" x="413.88" y="-842.35" font-family="Arial Bold" font-size="14.00" fill="#2d3436">• Quality Tracking</text>
</g>
<!-- 88401559e5d8480a913a0f5aff53178d&#45;&gt;10fb1d6ea01d46138a6e51445390a135 -->
<g id="edge3" class="edge">
<title>88401559e5d8480a913a0f5aff53178d&#45;&gt;10fb1d6ea01d46138a6e51445390a135</title>
<path fill="none" stroke="#f18f01" stroke-width="2" d="M387.38,-1240.22C387.38,-1240.22 387.38,-1074.59 387.38,-1074.59"/>
<polygon fill="#f18f01" stroke="#f18f01" stroke-width="2" points="390.88,-1076.1 387.38,-1066.1 383.88,-1076.1 390.88,-1076.1"/>
<text xml:space="preserve" text-anchor="middle" x="426.88" y="-1155.75" font-family="Sans-Serif" font-size="13.00" fill="#2d3436">Processed Data</text>
<text xml:space="preserve" text-anchor="middle" x="426.88" y="-1139.25" font-family="Sans-Serif" font-size="13.00" fill="#2d3436">Sentiment + Keywords</text>
</g>
<!-- 0fa7874d6339424cb8761d5000f1334d -->
<g id="node6" class="node">
<title>0fa7874d6339424cb8761d5000f1334d</title>
<image xlink:href="D:\Data Engineering\Projects\news_intelligence\.venv\Lib\site-packages\resources/programming/language\python.png" width="100.8px" height="100.8px" preserveAspectRatio="xMinYMin meet" x="363.475" y="-601.7"/>
<text xml:space="preserve" text-anchor="middle" x="413.88" y="-489.4" font-family="Arial Bold" font-size="14.00" fill="#2d3436">dashboard.py</text>
<text xml:space="preserve" text-anchor="middle" x="413.88" y="-473.65" font-family="Arial Bold" font-size="14.00" fill="#2d3436">• Streamlit Dashboard</text>
<text xml:space="preserve" text-anchor="middle" x="413.88" y="-457.9" font-family="Arial Bold" font-size="14.00" fill="#2d3436">• Interactive Analytics</text>
<text xml:space="preserve" text-anchor="middle" x="413.88" y="-442.15" font-family="Arial Bold" font-size="14.00" fill="#2d3436">• Real&#45;time Updates</text>
</g>
<!-- 10fb1d6ea01d46138a6e51445390a135&#45;&gt;0fa7874d6339424cb8761d5000f1334d -->
<g id="edge4" class="edge">
<title>10fb1d6ea01d46138a6e51445390a135&#45;&gt;0fa7874d6339424cb8761d5000f1334d</title>
<path fill="none" stroke="#c73e1d" stroke-width="2" d="M413.88,-840.02C413.88,-840.02 413.88,-674.39 413.88,-674.39"/>
<polygon fill="#c73e1d" stroke="#c73e1d" stroke-width="2" points="417.38,-675.9 413.88,-665.9 410.38,-675.9 417.38,-675.9"/>
<text xml:space="preserve" text-anchor="middle" x="459.62" y="-755.55" font-family="Sans-Serif" font-size="13.00" fill="#2d3436">Structured Data</text>
<text xml:space="preserve" text-anchor="middle" x="459.62" y="-739.05" font-family="Sans-Serif" font-size="13.00" fill="#2d3436">SQL Queries</text>
</g>
<!-- 5b6f3da35d4b40d1a7333d170b3b12ee -->
<g id="node5" class="node">
<title>5b6f3da35d4b40d1a7333d170b3b12ee</title>
<image xlink:href="D:\Data Engineering\Projects\news_intelligence\.venv\Lib\site-packages\resources/programming/language\python.png" width="100.8px" height="100.8px" preserveAspectRatio="xMinYMin meet" x="388.475" y="-2202.5"/>
<text xml:space="preserve" text-anchor="middle" x="438.88" y="-2090.2" font-family="Arial Bold" font-size="14.00" fill="#2d3436">config.py</text>
<text xml:space="preserve" text-anchor="middle" x="438.88" y="-2074.45" font-family="Arial Bold" font-size="14.00" fill="#2d3436">• Environment Settings</text>
<text xml:space="preserve" text-anchor="middle" x="438.88" y="-2058.7" font-family="Arial Bold" font-size="14.00" fill="#2d3436">• Health Monitoring</text>
<text xml:space="preserve" text-anchor="middle" x="438.88" y="-2042.95" font-family="Arial Bold" font-size="14.00" fill="#2d3436">• Performance Metrics</text>
</g>
<!-- 5b6f3da35d4b40d1a7333d170b3b12ee&#45;&gt;3b628f920455469ab3852dc0758379b7 -->
<g id="edge5" class="edge">
<title>5b6f3da35d4b40d1a7333d170b3b12ee&#45;&gt;3b628f920455469ab3852dc0758379b7</title>
<path fill="none" stroke="#6c757d" stroke-dasharray="5,2" d="M396.07,-2040.84C396.07,-1934.26 396.07,-1789.5 396.07,-1789.5 396.07,-1789.5 306.74,-1789.5 306.74,-1789.5"/>
<polygon fill="#6c757d" stroke="#6c757d" points="306.74,-1786 296.74,-1789.5 306.74,-1793 306.74,-1786"/>
<text xml:space="preserve" text-anchor="middle" x="384.25" y="-1947.9" font-family="Sans-Serif" font-size="13.00" fill="#2d3436">Config</text>
</g>
<!-- 5b6f3da35d4b40d1a7333d170b3b12ee&#45;&gt;88401559e5d8480a913a0f5aff53178d -->
<g id="edge6" class="edge">
<title>5b6f3da35d4b40d1a7333d170b3b12ee&#45;&gt;88401559e5d8480a913a0f5aff53178d</title>
<path fill="none" stroke="#6c757d" stroke-dasharray="5,2" d="M403.68,-2040.81C403.68,-2040.81 403.68,-1474.53 403.68,-1474.53"/>
<polygon fill="#6c757d" stroke="#6c757d" points="407.18,-1474.53 403.68,-1464.53 400.18,-1474.53 407.18,-1474.53"/>
<text xml:space="preserve" text-anchor="middle" x="462.5" y="-1747.8" font-family="Sans-Serif" font-size="13.00" fill="#2d3436">Settings</text>
</g>
<!-- 5b6f3da35d4b40d1a7333d170b3b12ee&#45;&gt;10fb1d6ea01d46138a6e51445390a135 -->
<g id="edge7" class="edge">
<title>5b6f3da35d4b40d1a7333d170b3b12ee&#45;&gt;10fb1d6ea01d46138a6e51445390a135</title>
<path fill="none" stroke="#6c757d" stroke-dasharray="5,2" d="M437.77,-2040.77C437.77,-2040.77 437.77,-1074.29 437.77,-1074.29"/>
<polygon fill="#6c757d" stroke="#6c757d" points="441.28,-1074.29 437.78,-1064.29 434.28,-1074.29 441.28,-1074.29"/>
<text xml:space="preserve" text-anchor="middle" x="529.25" y="-1547.7" font-family="Sans-Serif" font-size="13.00" fill="#2d3436">Monitoring</text>
</g>
<!-- 4a183466477f4008b40c8e3d2acf2ce8 -->
<g id="node7" class="node">
<title>4a183466477f4008b40c8e3d2acf2ce8</title>
<image xlink:href="D:\Data Engineering\Projects\news_intelligence\.venv\Lib\site-packages\resources/onprem/client\users.png" width="100.8px" height="100.8px" preserveAspectRatio="xMinYMin meet" x="363.475" y="-201.5"/>
<text xml:space="preserve" text-anchor="middle" x="413.88" y="-89.2" font-family="Arial Bold" font-size="14.00" fill="#2d3436">End Users</text>
<text xml:space="preserve" text-anchor="middle" x="413.88" y="-73.45" font-family="Arial Bold" font-size="14.00" fill="#2d3436">• Data Engineers</text>
<text xml:space="preserve" text-anchor="middle" x="413.88" y="-57.7" font-family="Arial Bold" font-size="14.00" fill="#2d3436">• Business Analysts</text>
<text xml:space="preserve" text-anchor="middle" x="413.88" y="-41.95" font-family="Arial Bold" font-size="14.00" fill="#2d3436">• Decision Makers</text>
</g>
<!-- 0fa7874d6339424cb8761d5000f1334d&#45;&gt;4a183466477f4008b40c8e3d2acf2ce8 -->
<g id="edge8" class="edge">
<title>0fa7874d6339424cb8761d5000f1334d&#45;&gt;4a183466477f4008b40c8e3d2acf2ce8</title>
<path fill="none" stroke="#28a745" stroke-width="2" d="M413.88,-439.82C413.88,-439.82 413.88,-274.19 413.88,-274.19"/>
<polygon fill="#28a745" stroke="#28a745" stroke-width="2" points="417.38,-275.7 413.88,-265.7 410.38,-275.7 417.38,-275.7"/>
<text xml:space="preserve" text-anchor="middle" x="454" y="-355.35" font-family="Sans-Serif" font-size="13.00" fill="#2d3436">Web Interface</text>
<text xml:space="preserve" text-anchor="middle" x="454" y="-338.85" font-family="Sans-Serif" font-size="13.00" fill="#2d3436">Port 8501</text>
</g>
</g>
</svg>
