<?xml version="1.0" encoding="UTF-8" standalone="no"?>
<!DOCTYPE svg PUBLIC "-//W3C//DTD SVG 1.1//EN"
 "http://www.w3.org/Graphics/SVG/1.1/DTD/svg11.dtd">
<!-- Generated by graphviz version 13.1.0 (20250701.0955)
 -->
<!-- Title: News Intelligence Pipeline &#45; Production Architecture Pages: 1 -->
<svg width="7950pt" height="9704pt"
 viewBox="0.00 0.00 7950.00 9704.00" xmlns="http://www.w3.org/2000/svg" xmlns:xlink="http://www.w3.org/1999/xlink">
<g id="graph0" class="graph" transform="scale(4.16667 4.16667) rotate(0) translate(144 2184.9)">
<title>News Intelligence Pipeline &#45; Production Architecture</title>
<polygon fill="white" stroke="none" points="-144,144 -144,-2184.9 1764,-2184.9 1764,144 -144,144"/>
<text xml:space="preserve" text-anchor="middle" x="810" y="-8.9" font-family="Arial" font-size="28.00" fill="#2d3436">News Intelligence Pipeline &#45; Production Architecture</text>
<g id="clust1" class="cluster">
<title>cluster_External APIs</title>
<path fill="#fff2e6" stroke="#aeb6be" d="M1256,-1128.7C1256,-1128.7 1348,-1128.7 1348,-1128.7 1354,-1128.7 1360,-1134.7 1360,-1140.7 1360,-1140.7 1360,-1350.85 1360,-1350.85 1360,-1356.85 1354,-1362.85 1348,-1362.85 1348,-1362.85 1256,-1362.85 1256,-1362.85 1250,-1362.85 1244,-1356.85 1244,-1350.85 1244,-1350.85 1244,-1140.7 1244,-1140.7 1244,-1134.7 1250,-1128.7 1256,-1128.7"/>
<text xml:space="preserve" text-anchor="middle" x="1287.25" y="-1347.45" font-family="Sans-Serif" font-size="12.00" fill="#2d3436">External APIs</text>
</g>
<g id="clust2" class="cluster">
<title>cluster_Containerized Services</title>
<path fill="#e6f3ff" stroke="#aeb6be" d="M62,-757.3C62,-757.3 500,-757.3 500,-757.3 506,-757.3 512,-763.3 512,-769.3 512,-769.3 512,-979.45 512,-979.45 512,-985.45 506,-991.45 500,-991.45 500,-991.45 62,-991.45 62,-991.45 56,-991.45 50,-985.45 50,-979.45 50,-979.45 50,-769.3 50,-769.3 50,-763.3 56,-757.3 62,-757.3"/>
<text xml:space="preserve" text-anchor="middle" x="117.25" y="-976.05" font-family="Sans-Serif" font-size="12.00" fill="#2d3436">Containerized Services</text>
</g>
<g id="clust3" class="cluster">
<title>cluster_Serverless Functions</title>
<path fill="#f0f8e6" stroke="#aeb6be" d="M1083,-757.3C1083,-757.3 1348,-757.3 1348,-757.3 1354,-757.3 1360,-763.3 1360,-769.3 1360,-769.3 1360,-979.45 1360,-979.45 1360,-985.45 1354,-991.45 1348,-991.45 1348,-991.45 1083,-991.45 1083,-991.45 1077,-991.45 1071,-985.45 1071,-979.45 1071,-979.45 1071,-769.3 1071,-769.3 1071,-763.3 1077,-757.3 1083,-757.3"/>
<text xml:space="preserve" text-anchor="middle" x="1132.62" y="-976.05" font-family="Sans-Serif" font-size="12.00" fill="#2d3436">Serverless Functions</text>
</g>
<g id="clust4" class="cluster">
<title>cluster_Data Infrastructure</title>
<path fill="#f5f0ff" stroke="#aeb6be" d="M607,-47.5C607,-47.5 1045,-47.5 1045,-47.5 1051,-47.5 1057,-53.5 1057,-59.5 1057,-59.5 1057,-624.55 1057,-624.55 1057,-630.55 1051,-636.55 1045,-636.55 1045,-636.55 607,-636.55 607,-636.55 601,-636.55 595,-630.55 595,-624.55 595,-624.55 595,-59.5 595,-59.5 595,-53.5 601,-47.5 607,-47.5"/>
<text xml:space="preserve" text-anchor="middle" x="652.88" y="-621.15" font-family="Sans-Serif" font-size="12.00" fill="#2d3436">Data Infrastructure</text>
</g>
<g id="clust5" class="cluster">
<title>cluster_Analytics Platform</title>
<path fill="#fff0f5" stroke="#aeb6be" d="M1121,-47.5C1121,-47.5 1386,-47.5 1386,-47.5 1392,-47.5 1398,-53.5 1398,-59.5 1398,-59.5 1398,-269.65 1398,-269.65 1398,-275.65 1392,-281.65 1386,-281.65 1386,-281.65 1121,-281.65 1121,-281.65 1115,-281.65 1109,-275.65 1109,-269.65 1109,-269.65 1109,-59.5 1109,-59.5 1109,-53.5 1115,-47.5 1121,-47.5"/>
<text xml:space="preserve" text-anchor="middle" x="1164.25" y="-266.25" font-family="Sans-Serif" font-size="12.00" fill="#2d3436">Analytics Platform</text>
</g>
<!-- b6722707bb084da98a72e3b3a7cb6d46 -->
<g id="node1" class="node">
<title>b6722707bb084da98a72e3b3a7cb6d46</title>
<image xlink:href="D:\Data Engineering\Projects\news_intelligence\.venv\Lib\site-packages\resources/onprem/client\users.png" width="100.8px" height="100.8px" preserveAspectRatio="xMinYMin meet" x="230.6" y="-1994.1"/>
<text xml:space="preserve" text-anchor="middle" x="281" y="-1880.45" font-family="Arial Bold" font-size="14.00" fill="#2d3436">Global Users</text>
<text xml:space="preserve" text-anchor="middle" x="281" y="-1864.7" font-family="Arial Bold" font-size="14.00" fill="#2d3436">• 1000+ Concurrent</text>
<text xml:space="preserve" text-anchor="middle" x="281" y="-1848.95" font-family="Arial Bold" font-size="14.00" fill="#2d3436">• Multi&#45;region</text>
</g>
<!-- 756aa6e57ea14335a368614d595bad64 -->
<g id="node2" class="node">
<title>756aa6e57ea14335a368614d595bad64</title>
<image xlink:href="D:\Data Engineering\Projects\news_intelligence\.venv\Lib\site-packages\resources/aws/network\cloudfront.png" width="100.8px" height="100.8px" preserveAspectRatio="xMinYMin meet" x="230.6" y="-1639.2"/>
<text xml:space="preserve" text-anchor="middle" x="281" y="-1525.55" font-family="Arial Bold" font-size="14.00" fill="#2d3436">CloudFront CDN</text>
<text xml:space="preserve" text-anchor="middle" x="281" y="-1509.8" font-family="Arial Bold" font-size="14.00" fill="#2d3436">• Global Distribution</text>
<text xml:space="preserve" text-anchor="middle" x="281" y="-1494.05" font-family="Arial Bold" font-size="14.00" fill="#2d3436">• Edge Caching</text>
</g>
<!-- b6722707bb084da98a72e3b3a7cb6d46&#45;&gt;756aa6e57ea14335a368614d595bad64 -->
<g id="edge1" class="edge">
<title>b6722707bb084da98a72e3b3a7cb6d46&#45;&gt;756aa6e57ea14335a368614d595bad64</title>
<path fill="none" stroke="#28a745" d="M281,-1846.72C281,-1846.72 281,-1697.48 281,-1697.48"/>
<polygon fill="#28a745" stroke="#28a745" points="284.5,-1697.48 281,-1687.48 277.5,-1697.48 284.5,-1697.48"/>
<text xml:space="preserve" text-anchor="middle" x="300.5" y="-1762.15" font-family="Sans-Serif" font-size="13.00" fill="#2d3436">HTTPS</text>
</g>
<!-- 1b7a2bcb870e4178a2373713f92d882e -->
<g id="node3" class="node">
<title>1b7a2bcb870e4178a2373713f92d882e</title>
<image xlink:href="D:\Data Engineering\Projects\news_intelligence\.venv\Lib\site-packages\resources/aws/network\elastic-load-balancing.png" width="100.8px" height="100.8px" preserveAspectRatio="xMinYMin meet" x="230.6" y="-1284.3"/>
<text xml:space="preserve" text-anchor="middle" x="281" y="-1170.65" font-family="Arial Bold" font-size="14.00" fill="#2d3436">Application LB</text>
<text xml:space="preserve" text-anchor="middle" x="281" y="-1154.9" font-family="Arial Bold" font-size="14.00" fill="#2d3436">• Auto Scaling</text>
<text xml:space="preserve" text-anchor="middle" x="281" y="-1139.15" font-family="Arial Bold" font-size="14.00" fill="#2d3436">• Health Checks</text>
</g>
<!-- 756aa6e57ea14335a368614d595bad64&#45;&gt;1b7a2bcb870e4178a2373713f92d882e -->
<g id="edge2" class="edge">
<title>756aa6e57ea14335a368614d595bad64&#45;&gt;1b7a2bcb870e4178a2373713f92d882e</title>
<path fill="none" stroke="#007bff" d="M281,-1491.82C281,-1491.82 281,-1342.58 281,-1342.58"/>
<polygon fill="#007bff" stroke="#007bff" points="284.5,-1342.58 281,-1332.58 277.5,-1342.58 284.5,-1342.58"/>
<text xml:space="preserve" text-anchor="middle" x="326.38" y="-1407.25" font-family="Sans-Serif" font-size="13.00" fill="#2d3436">Cached Content</text>
</g>
<!-- fcc0815ef2304a7e9a523901102aa80c -->
<g id="node5" class="node">
<title>fcc0815ef2304a7e9a523901102aa80c</title>
<image xlink:href="D:\Data Engineering\Projects\news_intelligence\.venv\Lib\site-packages\resources/aws/compute\elastic-container-service.png" width="100.8px" height="100.8px" preserveAspectRatio="xMinYMin meet" x="403.6" y="-912.9"/>
<text xml:space="preserve" text-anchor="middle" x="454" y="-799.25" font-family="Arial Bold" font-size="14.00" fill="#2d3436">Pipeline Service 1</text>
<text xml:space="preserve" text-anchor="middle" x="454" y="-783.5" font-family="Arial Bold" font-size="14.00" fill="#2d3436">• Auto Scaling</text>
<text xml:space="preserve" text-anchor="middle" x="454" y="-767.75" font-family="Arial Bold" font-size="14.00" fill="#2d3436">• Health Monitoring</text>
</g>
<!-- 1b7a2bcb870e4178a2373713f92d882e&#45;&gt;fcc0815ef2304a7e9a523901102aa80c -->
<g id="edge3" class="edge">
<title>1b7a2bcb870e4178a2373713f92d882e&#45;&gt;fcc0815ef2304a7e9a523901102aa80c</title>
<path fill="none" stroke="#6f42c1" d="M331.04,-1233.5C382.13,-1233.5 454,-1233.5 454,-1233.5 454,-1233.5 454,-971 454,-971"/>
<polygon fill="#6f42c1" stroke="#6f42c1" points="457.5,-971 454,-961 450.5,-971 457.5,-971"/>
<text xml:space="preserve" text-anchor="middle" x="504.12" y="-1044.1" font-family="Sans-Serif" font-size="13.00" fill="#2d3436">Traffic Distribution</text>
</g>
<!-- 4f191acc39e34377a6ed55f14d9deac2 -->
<g id="node6" class="node">
<title>4f191acc39e34377a6ed55f14d9deac2</title>
<image xlink:href="D:\Data Engineering\Projects\news_intelligence\.venv\Lib\site-packages\resources/aws/compute\elastic-container-service.png" width="100.8px" height="100.8px" preserveAspectRatio="xMinYMin meet" x="57.6" y="-912.9"/>
<text xml:space="preserve" text-anchor="middle" x="108" y="-799.25" font-family="Arial Bold" font-size="14.00" fill="#2d3436">Pipeline Service 2</text>
<text xml:space="preserve" text-anchor="middle" x="108" y="-783.5" font-family="Arial Bold" font-size="14.00" fill="#2d3436">• Load Balanced</text>
<text xml:space="preserve" text-anchor="middle" x="108" y="-767.75" font-family="Arial Bold" font-size="14.00" fill="#2d3436">• Fault Tolerant</text>
</g>
<!-- 1b7a2bcb870e4178a2373713f92d882e&#45;&gt;4f191acc39e34377a6ed55f14d9deac2 -->
<g id="edge4" class="edge">
<title>1b7a2bcb870e4178a2373713f92d882e&#45;&gt;4f191acc39e34377a6ed55f14d9deac2</title>
<path fill="none" stroke="#6f42c1" d="M230.96,-1233.5C179.87,-1233.5 108,-1233.5 108,-1233.5 108,-1233.5 108,-971 108,-971"/>
<polygon fill="#6f42c1" stroke="#6f42c1" points="111.5,-971 108,-961 104.5,-971 111.5,-971"/>
<text xml:space="preserve" text-anchor="middle" x="156.62" y="-1044.1" font-family="Sans-Serif" font-size="13.00" fill="#2d3436">Load Balanced</text>
</g>
<!-- bd5a58b40e95401a91f58d12fef43ef7 -->
<g id="node7" class="node">
<title>bd5a58b40e95401a91f58d12fef43ef7</title>
<image xlink:href="D:\Data Engineering\Projects\news_intelligence\.venv\Lib\site-packages\resources/aws/compute\elastic-container-service.png" width="100.8px" height="100.8px" preserveAspectRatio="xMinYMin meet" x="230.6" y="-912.9"/>
<text xml:space="preserve" text-anchor="middle" x="281" y="-799.25" font-family="Arial Bold" font-size="14.00" fill="#2d3436">Pipeline Service 3</text>
<text xml:space="preserve" text-anchor="middle" x="281" y="-783.5" font-family="Arial Bold" font-size="14.00" fill="#2d3436">• High Availability</text>
<text xml:space="preserve" text-anchor="middle" x="281" y="-767.75" font-family="Arial Bold" font-size="14.00" fill="#2d3436">• Performance Optimized</text>
</g>
<!-- 1b7a2bcb870e4178a2373713f92d882e&#45;&gt;bd5a58b40e95401a91f58d12fef43ef7 -->
<g id="edge5" class="edge">
<title>1b7a2bcb870e4178a2373713f92d882e&#45;&gt;bd5a58b40e95401a91f58d12fef43ef7</title>
<path fill="none" stroke="#6f42c1" d="M281,-1136.8C281,-1136.8 281,-971.19 281,-971.19"/>
<polygon fill="#6f42c1" stroke="#6f42c1" points="284.5,-971.19 281,-961.19 277.5,-971.19 284.5,-971.19"/>
<text xml:space="preserve" text-anchor="middle" x="326.75" y="-1044.1" font-family="Sans-Serif" font-size="13.00" fill="#2d3436">High Availability</text>
</g>
<!-- eb2e4f273c2742adb8ca88b440a486b3 -->
<g id="node4" class="node">
<title>eb2e4f273c2742adb8ca88b440a486b3</title>
<image xlink:href="D:\Data Engineering\Projects\news_intelligence\.venv\Lib\site-packages\resources/generic/network\firewall.png" width="100.8px" height="100.8px" preserveAspectRatio="xMinYMin meet" x="1251.6" y="-1284.3"/>
<text xml:space="preserve" text-anchor="middle" x="1302" y="-1170.65" font-family="Arial Bold" font-size="14.00" fill="#2d3436">GNews API</text>
<text xml:space="preserve" text-anchor="middle" x="1302" y="-1154.9" font-family="Arial Bold" font-size="14.00" fill="#2d3436">• Enterprise Tier</text>
<text xml:space="preserve" text-anchor="middle" x="1302" y="-1139.15" font-family="Arial Bold" font-size="14.00" fill="#2d3436">• SLA Guaranteed</text>
</g>
<!-- 6863d3b6c1be450f86f7d3c9c34f671c -->
<g id="node8" class="node">
<title>6863d3b6c1be450f86f7d3c9c34f671c</title>
<image xlink:href="D:\Data Engineering\Projects\news_intelligence\.venv\Lib\site-packages\resources/aws/compute\lambda.png" width="100.8px" height="100.8px" preserveAspectRatio="xMinYMin meet" x="1251.6" y="-912.9"/>
<text xml:space="preserve" text-anchor="middle" x="1302" y="-799.25" font-family="Arial Bold" font-size="14.00" fill="#2d3436">Ingestion Lambda</text>
<text xml:space="preserve" text-anchor="middle" x="1302" y="-783.5" font-family="Arial Bold" font-size="14.00" fill="#2d3436">• Event Triggered</text>
<text xml:space="preserve" text-anchor="middle" x="1302" y="-767.75" font-family="Arial Bold" font-size="14.00" fill="#2d3436">• Auto Scaling</text>
</g>
<!-- eb2e4f273c2742adb8ca88b440a486b3&#45;&gt;6863d3b6c1be450f86f7d3c9c34f671c -->
<g id="edge6" class="edge">
<title>eb2e4f273c2742adb8ca88b440a486b3&#45;&gt;6863d3b6c1be450f86f7d3c9c34f671c</title>
<path fill="none" stroke="#fd7e14" d="M1302,-1136.8C1302,-1136.8 1302,-971.19 1302,-971.19"/>
<polygon fill="#fd7e14" stroke="#fd7e14" points="1305.5,-971.19 1302,-961.19 1298.5,-971.19 1305.5,-971.19"/>
<text xml:space="preserve" text-anchor="middle" x="1344.75" y="-1052.35" font-family="Sans-Serif" font-size="13.00" fill="#2d3436">Real&#45;time Data</text>
<text xml:space="preserve" text-anchor="middle" x="1344.75" y="-1035.85" font-family="Sans-Serif" font-size="13.00" fill="#2d3436">100 req/min</text>
</g>
<!-- 4629e2b7b85947ff83f36acb7a00aa79 -->
<g id="node10" class="node">
<title>4629e2b7b85947ff83f36acb7a00aa79</title>
<image xlink:href="D:\Data Engineering\Projects\news_intelligence\.venv\Lib\site-packages\resources/aws/database\rds.png" width="100.8px" height="100.8px" preserveAspectRatio="xMinYMin meet" x="602.6" y="-558"/>
<text xml:space="preserve" text-anchor="middle" x="653" y="-444.35" font-family="Arial Bold" font-size="14.00" fill="#2d3436">PostgreSQL Primary</text>
<text xml:space="preserve" text-anchor="middle" x="653" y="-428.6" font-family="Arial Bold" font-size="14.00" fill="#2d3436">• Multi&#45;AZ</text>
<text xml:space="preserve" text-anchor="middle" x="653" y="-412.85" font-family="Arial Bold" font-size="14.00" fill="#2d3436">• Automated Backups</text>
</g>
<!-- fcc0815ef2304a7e9a523901102aa80c&#45;&gt;4629e2b7b85947ff83f36acb7a00aa79 -->
<g id="edge15" class="edge">
<title>fcc0815ef2304a7e9a523901102aa80c&#45;&gt;4629e2b7b85947ff83f36acb7a00aa79</title>
<path fill="none" stroke="#dc3545" d="M504.27,-813.5C558.2,-813.5 636.2,-813.5 636.2,-813.5 636.2,-813.5 636.2,-615.9 636.2,-615.9"/>
<polygon fill="#dc3545" stroke="#dc3545" points="639.7,-615.9 636.2,-605.9 632.7,-615.9 639.7,-615.9"/>
<text xml:space="preserve" text-anchor="middle" x="597.12" y="-680.95" font-family="Sans-Serif" font-size="13.00" fill="#2d3436">Write Ops</text>
</g>
<!-- 59a19f906f3c4bab85146c79825072ab -->
<g id="node11" class="node">
<title>59a19f906f3c4bab85146c79825072ab</title>
<image xlink:href="D:\Data Engineering\Projects\news_intelligence\.venv\Lib\site-packages\resources/aws/database\rds.png" width="100.8px" height="100.8px" preserveAspectRatio="xMinYMin meet" x="602.6" y="-203.1"/>
<text xml:space="preserve" text-anchor="middle" x="653" y="-89.45" font-family="Arial Bold" font-size="14.00" fill="#2d3436">Read Replica</text>
<text xml:space="preserve" text-anchor="middle" x="653" y="-73.7" font-family="Arial Bold" font-size="14.00" fill="#2d3436">• Cross&#45;Region</text>
<text xml:space="preserve" text-anchor="middle" x="653" y="-57.95" font-family="Arial Bold" font-size="14.00" fill="#2d3436">• Read Scaling</text>
</g>
<!-- fcc0815ef2304a7e9a523901102aa80c&#45;&gt;59a19f906f3c4bab85146c79825072ab -->
<g id="edge12" class="edge">
<title>fcc0815ef2304a7e9a523901102aa80c&#45;&gt;59a19f906f3c4bab85146c79825072ab</title>
<path fill="none" stroke="#17a2b8" d="M470.8,-765.32C470.8,-581.59 470.8,-201.5 470.8,-201.5 470.8,-201.5 591.22,-201.5 591.22,-201.5"/>
<polygon fill="#17a2b8" stroke="#17a2b8" points="591.22,-205 601.22,-201.5 591.22,-198 591.22,-205"/>
<text xml:space="preserve" text-anchor="middle" x="492.25" y="-503.5" font-family="Sans-Serif" font-size="13.00" fill="#2d3436">Read Queries</text>
</g>
<!-- ee29cee511274c7790519f028dba3e18 -->
<g id="node15" class="node">
<title>ee29cee511274c7790519f028dba3e18</title>
<image xlink:href="D:\Data Engineering\Projects\news_intelligence\.venv\Lib\site-packages\resources/onprem/monitoring\prometheus.png" width="100.8px" height="100.8px" preserveAspectRatio="xMinYMin meet" x="1289.6" y="-203.1"/>
<text xml:space="preserve" text-anchor="middle" x="1340" y="-89.45" font-family="Arial Bold" font-size="14.00" fill="#2d3436">Monitoring</text>
<text xml:space="preserve" text-anchor="middle" x="1340" y="-73.7" font-family="Arial Bold" font-size="14.00" fill="#2d3436">• Real&#45;time Metrics</text>
<text xml:space="preserve" text-anchor="middle" x="1340" y="-57.95" font-family="Arial Bold" font-size="14.00" fill="#2d3436">• Alerting</text>
</g>
<!-- fcc0815ef2304a7e9a523901102aa80c&#45;&gt;ee29cee511274c7790519f028dba3e18 -->
<g id="edge17" class="edge">
<title>fcc0815ef2304a7e9a523901102aa80c&#45;&gt;ee29cee511274c7790519f028dba3e18</title>
<path fill="none" stroke="#6c757d" stroke-dasharray="5,2" d="M437.2,-765.58C437.2,-712.94 437.2,-658.5 437.2,-658.5 437.2,-658.5 1305.3,-658.5 1305.3,-658.5 1305.3,-658.5 1305.3,-261.14 1305.3,-261.14"/>
<polygon fill="#6c757d" stroke="#6c757d" points="1308.8,-261.14 1305.3,-251.14 1301.8,-261.14 1308.8,-261.14"/>
<text xml:space="preserve" text-anchor="middle" x="1213.25" y="-503.5" font-family="Sans-Serif" font-size="13.00" fill="#2d3436">Metrics</text>
</g>
<!-- 4f191acc39e34377a6ed55f14d9deac2&#45;&gt;59a19f906f3c4bab85146c79825072ab -->
<g id="edge13" class="edge">
<title>4f191acc39e34377a6ed55f14d9deac2&#45;&gt;59a19f906f3c4bab85146c79825072ab</title>
<path fill="none" stroke="#17a2b8" d="M108,-765.34C108,-560.81 108,-104.5 108,-104.5 108,-104.5 591.19,-104.5 591.19,-104.5"/>
<polygon fill="#17a2b8" stroke="#17a2b8" points="591.19,-108 601.19,-104.5 591.19,-101 591.19,-108"/>
<text xml:space="preserve" text-anchor="middle" x="47.62" y="-503.5" font-family="Sans-Serif" font-size="13.00" fill="#2d3436">Read Operations</text>
</g>
<!-- bd5a58b40e95401a91f58d12fef43ef7&#45;&gt;59a19f906f3c4bab85146c79825072ab -->
<g id="edge14" class="edge">
<title>bd5a58b40e95401a91f58d12fef43ef7&#45;&gt;59a19f906f3c4bab85146c79825072ab</title>
<path fill="none" stroke="#17a2b8" d="M281,-765.64C281,-571.35 281,-152.5 281,-152.5 281,-152.5 591.32,-152.5 591.32,-152.5"/>
<polygon fill="#17a2b8" stroke="#17a2b8" points="591.32,-156 601.32,-152.5 591.32,-149 591.32,-156"/>
<text xml:space="preserve" text-anchor="middle" x="274.62" y="-503.5" font-family="Sans-Serif" font-size="13.00" fill="#2d3436">Read Access</text>
</g>
<!-- 11075631a61c4faca12b7e6051143893 -->
<g id="node12" class="node">
<title>11075631a61c4faca12b7e6051143893</title>
<image xlink:href="D:\Data Engineering\Projects\news_intelligence\.venv\Lib\site-packages\resources/aws/storage\simple-storage-service-s3.png" width="100.8px" height="100.8px" preserveAspectRatio="xMinYMin meet" x="948.6" y="-558"/>
<text xml:space="preserve" text-anchor="middle" x="999" y="-444.35" font-family="Arial Bold" font-size="14.00" fill="#2d3436">Raw Data Lake</text>
<text xml:space="preserve" text-anchor="middle" x="999" y="-428.6" font-family="Arial Bold" font-size="14.00" fill="#2d3436">• JSON Files</text>
<text xml:space="preserve" text-anchor="middle" x="999" y="-412.85" font-family="Arial Bold" font-size="14.00" fill="#2d3436">• Versioned Storage</text>
</g>
<!-- 6863d3b6c1be450f86f7d3c9c34f671c&#45;&gt;11075631a61c4faca12b7e6051143893 -->
<g id="edge7" class="edge">
<title>6863d3b6c1be450f86f7d3c9c34f671c&#45;&gt;11075631a61c4faca12b7e6051143893</title>
<path fill="none" stroke="#20c997" d="M1270.6,-765.34C1270.6,-650.71 1270.6,-475.5 1270.6,-475.5 1270.6,-475.5 1060.65,-475.5 1060.65,-475.5"/>
<polygon fill="#20c997" stroke="#20c997" points="1060.65,-472 1050.65,-475.5 1060.65,-479 1060.65,-472"/>
<text xml:space="preserve" text-anchor="middle" x="1521.62" y="-680.95" font-family="Sans-Serif" font-size="13.00" fill="#2d3436">Raw JSON</text>
</g>
<!-- 6863d3b6c1be450f86f7d3c9c34f671c&#45;&gt;ee29cee511274c7790519f028dba3e18 -->
<g id="edge18" class="edge">
<title>6863d3b6c1be450f86f7d3c9c34f671c&#45;&gt;ee29cee511274c7790519f028dba3e18</title>
<path fill="none" stroke="#6c757d" stroke-dasharray="5,2" d="M1336.7,-765.66C1336.7,-765.66 1336.7,-261.21 1336.7,-261.21"/>
<polygon fill="#6c757d" stroke="#6c757d" points="1340.2,-261.21 1336.7,-251.21 1333.2,-261.21 1340.2,-261.21"/>
<text xml:space="preserve" text-anchor="middle" x="1606.5" y="-503.5" font-family="Sans-Serif" font-size="13.00" fill="#2d3436">Logs</text>
</g>
<!-- 6d97fd6ca79b4c7c8852812a3269d202 -->
<g id="node9" class="node">
<title>6d97fd6ca79b4c7c8852812a3269d202</title>
<image xlink:href="D:\Data Engineering\Projects\news_intelligence\.venv\Lib\site-packages\resources/aws/compute\lambda.png" width="100.8px" height="100.8px" preserveAspectRatio="xMinYMin meet" x="1078.6" y="-912.9"/>
<text xml:space="preserve" text-anchor="middle" x="1129" y="-799.25" font-family="Arial Bold" font-size="14.00" fill="#2d3436">Processing Lambda</text>
<text xml:space="preserve" text-anchor="middle" x="1129" y="-783.5" font-family="Arial Bold" font-size="14.00" fill="#2d3436">• Batch Jobs</text>
<text xml:space="preserve" text-anchor="middle" x="1129" y="-767.75" font-family="Arial Bold" font-size="14.00" fill="#2d3436">• Scheduled Runs</text>
</g>
<!-- 6d97fd6ca79b4c7c8852812a3269d202&#45;&gt;4629e2b7b85947ff83f36acb7a00aa79 -->
<g id="edge10" class="edge">
<title>6d97fd6ca79b4c7c8852812a3269d202&#45;&gt;4629e2b7b85947ff83f36acb7a00aa79</title>
<path fill="none" stroke="#dc3545" d="M1078.98,-911.5C959.97,-911.5 669.8,-911.5 669.8,-911.5 669.8,-911.5 669.8,-616.11 669.8,-616.11"/>
<polygon fill="#dc3545" stroke="#dc3545" points="673.3,-616.11 669.8,-606.11 666.3,-616.11 673.3,-616.11"/>
<text xml:space="preserve" text-anchor="middle" x="757.75" y="-680.95" font-family="Sans-Serif" font-size="13.00" fill="#2d3436">Structured Data</text>
</g>
<!-- 70b0a38f255c485bb55ea5185fb71547 -->
<g id="node13" class="node">
<title>70b0a38f255c485bb55ea5185fb71547</title>
<image xlink:href="D:\Data Engineering\Projects\news_intelligence\.venv\Lib\site-packages\resources/aws/storage\simple-storage-service-s3.png" width="100.8px" height="100.8px" preserveAspectRatio="xMinYMin meet" x="775.6" y="-558"/>
<text xml:space="preserve" text-anchor="middle" x="826" y="-444.35" font-family="Arial Bold" font-size="14.00" fill="#2d3436">Processed Data</text>
<text xml:space="preserve" text-anchor="middle" x="826" y="-428.6" font-family="Arial Bold" font-size="14.00" fill="#2d3436">• Parquet Format</text>
<text xml:space="preserve" text-anchor="middle" x="826" y="-412.85" font-family="Arial Bold" font-size="14.00" fill="#2d3436">• Partitioned</text>
</g>
<!-- 6d97fd6ca79b4c7c8852812a3269d202&#45;&gt;70b0a38f255c485bb55ea5185fb71547 -->
<g id="edge9" class="edge">
<title>6d97fd6ca79b4c7c8852812a3269d202&#45;&gt;70b0a38f255c485bb55ea5185fb71547</title>
<path fill="none" stroke="#6610f2" d="M1078.63,-862.5C992.47,-862.5 826,-862.5 826,-862.5 826,-862.5 826,-616.09 826,-616.09"/>
<polygon fill="#6610f2" stroke="#6610f2" points="829.5,-616.09 826,-606.09 822.5,-616.09 829.5,-616.09"/>
<text xml:space="preserve" text-anchor="middle" x="930.25" y="-680.95" font-family="Sans-Serif" font-size="13.00" fill="#2d3436">Processed Data</text>
</g>
<!-- 6d97fd6ca79b4c7c8852812a3269d202&#45;&gt;ee29cee511274c7790519f028dba3e18 -->
<g id="edge19" class="edge">
<title>6d97fd6ca79b4c7c8852812a3269d202&#45;&gt;ee29cee511274c7790519f028dba3e18</title>
<path fill="none" stroke="#6c757d" stroke-dasharray="5,2" d="M1148,-765.59C1148,-736.18 1148,-711.5 1148,-711.5 1148,-711.5 1321,-711.5 1321,-711.5 1321,-711.5 1321,-261.23 1321,-261.23"/>
<polygon fill="#6c757d" stroke="#6c757d" points="1324.5,-261.23 1321,-251.23 1317.5,-261.23 1324.5,-261.23"/>
<text xml:space="preserve" text-anchor="middle" x="1413.62" y="-503.5" font-family="Sans-Serif" font-size="13.00" fill="#2d3436">Performance</text>
</g>
<!-- 4629e2b7b85947ff83f36acb7a00aa79&#45;&gt;59a19f906f3c4bab85146c79825072ab -->
<g id="edge11" class="edge">
<title>4629e2b7b85947ff83f36acb7a00aa79&#45;&gt;59a19f906f3c4bab85146c79825072ab</title>
<path fill="none" stroke="#6c757d" stroke-dasharray="5,2" d="M653,-410.62C653,-410.62 653,-261.38 653,-261.38"/>
<polygon fill="#6c757d" stroke="#6c757d" points="656.5,-261.38 653,-251.38 649.5,-261.38 656.5,-261.38"/>
<text xml:space="preserve" text-anchor="middle" x="725.25" y="-326.05" font-family="Sans-Serif" font-size="13.00" fill="#2d3436">Async Replication</text>
</g>
<!-- 11075631a61c4faca12b7e6051143893&#45;&gt;6d97fd6ca79b4c7c8852812a3269d202 -->
<g id="edge8" class="edge">
<title>11075631a61c4faca12b7e6051143893&#45;&gt;6d97fd6ca79b4c7c8852812a3269d202</title>
<path fill="none" stroke="#e83e8c" d="M1049.17,-540.5C1073.52,-540.5 1097.6,-540.5 1097.6,-540.5 1097.6,-540.5 1097.6,-753.94 1097.6,-753.94"/>
<polygon fill="#e83e8c" stroke="#e83e8c" points="1094.1,-753.94 1097.6,-763.94 1101.1,-753.94 1094.1,-753.94"/>
<text xml:space="preserve" text-anchor="middle" x="1101.25" y="-680.95" font-family="Sans-Serif" font-size="13.00" fill="#2d3436">S3 Event Trigger</text>
</g>
<!-- 1efbb0c0e39f4e44b91cd68e69dad8e6 -->
<g id="node14" class="node">
<title>1efbb0c0e39f4e44b91cd68e69dad8e6</title>
<image xlink:href="D:\Data Engineering\Projects\news_intelligence\.venv\Lib\site-packages\resources/aws/analytics\athena.png" width="100.8px" height="100.8px" preserveAspectRatio="xMinYMin meet" x="1116.6" y="-203.1"/>
<text xml:space="preserve" text-anchor="middle" x="1167" y="-89.45" font-family="Arial Bold" font-size="14.00" fill="#2d3436">Query Engine</text>
<text xml:space="preserve" text-anchor="middle" x="1167" y="-73.7" font-family="Arial Bold" font-size="14.00" fill="#2d3436">• Serverless SQL</text>
<text xml:space="preserve" text-anchor="middle" x="1167" y="-57.95" font-family="Arial Bold" font-size="14.00" fill="#2d3436">• Cost Optimized</text>
</g>
<!-- 70b0a38f255c485bb55ea5185fb71547&#45;&gt;1efbb0c0e39f4e44b91cd68e69dad8e6 -->
<g id="edge16" class="edge">
<title>70b0a38f255c485bb55ea5185fb71547&#45;&gt;1efbb0c0e39f4e44b91cd68e69dad8e6</title>
<path fill="none" stroke="#ffc107" d="M826,-410.57C826,-305.43 826,-152.5 826,-152.5 826,-152.5 1105.17,-152.5 1105.17,-152.5"/>
<polygon fill="#ffc107" stroke="#ffc107" points="1105.17,-156 1115.17,-152.5 1105.17,-149 1105.17,-156"/>
<text xml:space="preserve" text-anchor="middle" x="1001.25" y="-326.05" font-family="Sans-Serif" font-size="13.00" fill="#2d3436">SQL Queries</text>
</g>
</g>
</svg>
