<?xml version="1.0" encoding="UTF-8" standalone="no"?>
<!DOCTYPE svg PUBLIC "-//W3C//DTD SVG 1.1//EN"
 "http://www.w3.org/Graphics/SVG/1.1/DTD/svg11.dtd">
<!-- Generated by graphviz version 13.1.0 (20250701.0955)
 -->
<!-- Title: News Intelligence Pipeline &#45; Data Flow Architecture Pages: 1 -->
<svg width="13711pt" height="5015pt"
 viewBox="0.00 0.00 13711.00 5015.00" xmlns="http://www.w3.org/2000/svg" xmlns:xlink="http://www.w3.org/1999/xlink">
<g id="graph0" class="graph" transform="scale(4.16667 4.16667) rotate(0) translate(144 1059.5)">
<title>News Intelligence Pipeline &#45; Data Flow Architecture</title>
<polygon fill="white" stroke="none" points="-144,144 -144,-1059.5 3146.75,-1059.5 3146.75,144 -144,144"/>
<text xml:space="preserve" text-anchor="middle" x="1501.38" y="-8.9" font-family="Arial" font-size="28.00" fill="#2d3436">News Intelligence Pipeline &#45; Data Flow Architecture</text>
<g id="clust1" class="cluster">
<title>cluster_Data Sources</title>
<path fill="#ffe6e6" stroke="#aeb6be" d="M20,-47.5C20,-47.5 112.8,-47.5 112.8,-47.5 118.8,-47.5 124.8,-53.5 124.8,-59.5 124.8,-59.5 124.8,-717.5 124.8,-717.5 124.8,-723.5 118.8,-729.5 112.8,-729.5 112.8,-729.5 20,-729.5 20,-729.5 14,-729.5 8,-723.5 8,-717.5 8,-717.5 8,-59.5 8,-59.5 8,-53.5 14,-47.5 20,-47.5"/>
<text xml:space="preserve" text-anchor="middle" x="50.5" y="-714.1" font-family="Sans-Serif" font-size="12.00" fill="#2d3436">Data Sources</text>
</g>
<g id="clust2" class="cluster">
<title>cluster_Ingestion Layer</title>
<path fill="#e6f2ff" stroke="#aeb6be" d="M332.3,-271.5C332.3,-271.5 753.9,-271.5 753.9,-271.5 759.9,-271.5 765.9,-277.5 765.9,-283.5 765.9,-283.5 765.9,-493.5 765.9,-493.5 765.9,-499.5 759.9,-505.5 753.9,-505.5 753.9,-505.5 332.3,-505.5 332.3,-505.5 326.3,-505.5 320.3,-499.5 320.3,-493.5 320.3,-493.5 320.3,-283.5 320.3,-283.5 320.3,-277.5 326.3,-271.5 332.3,-271.5"/>
<text xml:space="preserve" text-anchor="middle" x="369.18" y="-490.1" font-family="Sans-Serif" font-size="12.00" fill="#2d3436">Ingestion Layer</text>
</g>
<g id="clust3" class="cluster">
<title>cluster_Processing Engine</title>
<path fill="#f0f8e6" stroke="#aeb6be" d="M968.15,-407.5C968.15,-407.5 2036.85,-407.5 2036.85,-407.5 2042.85,-407.5 2048.85,-413.5 2048.85,-419.5 2048.85,-419.5 2048.85,-629.5 2048.85,-629.5 2048.85,-635.5 2042.85,-641.5 2036.85,-641.5 2036.85,-641.5 968.15,-641.5 968.15,-641.5 962.15,-641.5 956.15,-635.5 956.15,-629.5 956.15,-629.5 956.15,-419.5 956.15,-419.5 956.15,-413.5 962.15,-407.5 968.15,-407.5"/>
<text xml:space="preserve" text-anchor="middle" x="1012.15" y="-626.1" font-family="Sans-Serif" font-size="12.00" fill="#2d3436">Processing Engine</text>
</g>
<g id="clust4" class="cluster">
<title>cluster_Data Storage</title>
<path fill="#f5f0ff" stroke="#aeb6be" d="M2280.35,-141.5C2280.35,-141.5 2373.15,-141.5 2373.15,-141.5 2379.15,-141.5 2385.15,-147.5 2385.15,-153.5 2385.15,-153.5 2385.15,-895.5 2385.15,-895.5 2385.15,-901.5 2379.15,-907.5 2373.15,-907.5 2373.15,-907.5 2280.35,-907.5 2280.35,-907.5 2274.35,-907.5 2268.35,-901.5 2268.35,-895.5 2268.35,-895.5 2268.35,-153.5 2268.35,-153.5 2268.35,-147.5 2274.35,-141.5 2280.35,-141.5"/>
<text xml:space="preserve" text-anchor="middle" x="2310.48" y="-892.1" font-family="Sans-Serif" font-size="12.00" fill="#2d3436">Data Storage</text>
</g>
<g id="clust5" class="cluster">
<title>cluster_Analytics Engine</title>
<path fill="#fff5e6" stroke="#aeb6be" d="M2598.65,-386.5C2598.65,-386.5 2691.45,-386.5 2691.45,-386.5 2697.45,-386.5 2703.45,-392.5 2703.45,-398.5 2703.45,-398.5 2703.45,-874.5 2703.45,-874.5 2703.45,-880.5 2697.45,-886.5 2691.45,-886.5 2691.45,-886.5 2598.65,-886.5 2598.65,-886.5 2592.65,-886.5 2586.65,-880.5 2586.65,-874.5 2586.65,-874.5 2586.65,-398.5 2586.65,-398.5 2586.65,-392.5 2592.65,-386.5 2598.65,-386.5"/>
<text xml:space="preserve" text-anchor="middle" x="2637.78" y="-871.1" font-family="Sans-Serif" font-size="12.00" fill="#2d3436">Analytics Engine</text>
</g>
<g id="clust6" class="cluster">
<title>cluster_User Interface</title>
<path fill="#e6ffe6" stroke="#aeb6be" d="M2889.95,-200.5C2889.95,-200.5 2982.75,-200.5 2982.75,-200.5 2988.75,-200.5 2994.75,-206.5 2994.75,-212.5 2994.75,-212.5 2994.75,-688.5 2994.75,-688.5 2994.75,-694.5 2988.75,-700.5 2982.75,-700.5 2982.75,-700.5 2889.95,-700.5 2889.95,-700.5 2883.95,-700.5 2877.95,-694.5 2877.95,-688.5 2877.95,-688.5 2877.95,-212.5 2877.95,-212.5 2877.95,-206.5 2883.95,-200.5 2889.95,-200.5"/>
<text xml:space="preserve" text-anchor="middle" x="2922.7" y="-685.1" font-family="Sans-Serif" font-size="12.00" fill="#2d3436">User Interface</text>
</g>
<!-- b6de3b566d144969a3c4f13c6f0b717b -->
<g id="node1" class="node">
<title>b6de3b566d144969a3c4f13c6f0b717b</title>
<image xlink:href="D:\Data Engineering\Projects\news_intelligence\.venv\Lib\site-packages\resources/generic/network\firewall.png" width="100.8px" height="100.8px" preserveAspectRatio="xMinYMin meet" x="16" y="-664.9"/>
<text xml:space="preserve" text-anchor="middle" x="66.4" y="-549.9" font-family="Arial Bold" font-size="14.00" fill="#2d3436">Global News</text>
<text xml:space="preserve" text-anchor="middle" x="66.4" y="-534.15" font-family="Arial Bold" font-size="14.00" fill="#2d3436">• 60,000+ Sources</text>
</g>
<!-- 863182a10a0a43638852f43efe5196f3 -->
<g id="node4" class="node">
<title>863182a10a0a43638852f43efe5196f3</title>
<image xlink:href="D:\Data Engineering\Projects\news_intelligence\.venv\Lib\site-packages\resources/programming/language\python.png" width="100.8px" height="100.8px" preserveAspectRatio="xMinYMin meet" x="328.3" y="-426.9"/>
<text xml:space="preserve" text-anchor="middle" x="378.7" y="-313.25" font-family="Arial Bold" font-size="14.00" fill="#2d3436">API Client</text>
<text xml:space="preserve" text-anchor="middle" x="378.7" y="-297.5" font-family="Arial Bold" font-size="14.00" fill="#2d3436">• Authentication</text>
<text xml:space="preserve" text-anchor="middle" x="378.7" y="-281.75" font-family="Arial Bold" font-size="14.00" fill="#2d3436">• Rate Limiting</text>
</g>
<!-- b6de3b566d144969a3c4f13c6f0b717b&#45;&gt;863182a10a0a43638852f43efe5196f3 -->
<g id="edge1" class="edge">
<title>b6de3b566d144969a3c4f13c6f0b717b&#45;&gt;863182a10a0a43638852f43efe5196f3</title>
<path fill="none" stroke="#007bff" d="M66.75,-531.85C66.75,-497.94 66.75,-466.5 66.75,-466.5 66.75,-466.5 317.07,-466.5 317.07,-466.5"/>
<polygon fill="#007bff" stroke="#007bff" points="317.07,-470 327.07,-466.5 317.07,-463 317.07,-470"/>
<text xml:space="preserve" text-anchor="middle" x="222.55" y="-546.65" font-family="Sans-Serif" font-size="13.00" fill="#2d3436">HTTP/JSON</text>
</g>
<!-- 8c284f8efab54393bf2e406862a592ac -->
<g id="node2" class="node">
<title>8c284f8efab54393bf2e406862a592ac</title>
<image xlink:href="D:\Data Engineering\Projects\news_intelligence\.venv\Lib\site-packages\resources/generic/network\firewall.png" width="100.8px" height="100.8px" preserveAspectRatio="xMinYMin meet" x="16" y="-426.9"/>
<text xml:space="preserve" text-anchor="middle" x="66.4" y="-311.9" font-family="Arial Bold" font-size="14.00" fill="#2d3436">Real&#45;time API</text>
<text xml:space="preserve" text-anchor="middle" x="66.4" y="-296.15" font-family="Arial Bold" font-size="14.00" fill="#2d3436">• Live Updates</text>
</g>
<!-- 8c284f8efab54393bf2e406862a592ac&#45;&gt;863182a10a0a43638852f43efe5196f3 -->
<g id="edge2" class="edge">
<title>8c284f8efab54393bf2e406862a592ac&#45;&gt;863182a10a0a43638852f43efe5196f3</title>
<path fill="none" stroke="#28a745" d="M116.58,-376.5C116.58,-376.5 316.88,-376.5 316.88,-376.5"/>
<polygon fill="#28a745" stroke="#28a745" points="316.88,-380 326.88,-376.5 316.88,-373 316.88,-380"/>
<text xml:space="preserve" text-anchor="middle" x="222.55" y="-380.65" font-family="Sans-Serif" font-size="13.00" fill="#2d3436">Real&#45;time</text>
</g>
<!-- 465fd2b30ee146909271b9ed5cdf7602 -->
<g id="node3" class="node">
<title>465fd2b30ee146909271b9ed5cdf7602</title>
<image xlink:href="D:\Data Engineering\Projects\news_intelligence\.venv\Lib\site-packages\resources/generic/network\firewall.png" width="100.8px" height="100.8px" preserveAspectRatio="xMinYMin meet" x="16" y="-188.9"/>
<text xml:space="preserve" text-anchor="middle" x="66.4" y="-73.9" font-family="Arial Bold" font-size="14.00" fill="#2d3436">Historical Data</text>
<text xml:space="preserve" text-anchor="middle" x="66.4" y="-58.15" font-family="Arial Bold" font-size="14.00" fill="#2d3436">• Archive Access</text>
</g>
<!-- 465fd2b30ee146909271b9ed5cdf7602&#45;&gt;863182a10a0a43638852f43efe5196f3 -->
<g id="edge3" class="edge">
<title>465fd2b30ee146909271b9ed5cdf7602&#45;&gt;863182a10a0a43638852f43efe5196f3</title>
<path fill="none" stroke="#ffc107" d="M66.75,-221.15C66.75,-255.06 66.75,-286.5 66.75,-286.5 66.75,-286.5 317.07,-286.5 317.07,-286.5"/>
<polygon fill="#ffc107" stroke="#ffc107" points="317.07,-290 327.07,-286.5 317.07,-283 317.07,-290"/>
<text xml:space="preserve" text-anchor="middle" x="222.55" y="-214.65" font-family="Sans-Serif" font-size="13.00" fill="#2d3436">Batch</text>
</g>
<!-- 0b1a9dedb51f401582c626dc36835716 -->
<g id="node5" class="node">
<title>0b1a9dedb51f401582c626dc36835716</title>
<image xlink:href="D:\Data Engineering\Projects\news_intelligence\.venv\Lib\site-packages\resources/generic/compute\rack.png" width="100.8px" height="100.8px" preserveAspectRatio="xMinYMin meet" x="657.1" y="-426.9"/>
<text xml:space="preserve" text-anchor="middle" x="707.5" y="-313.25" font-family="Arial Bold" font-size="14.00" fill="#2d3436">Data Validator</text>
<text xml:space="preserve" text-anchor="middle" x="707.5" y="-297.5" font-family="Arial Bold" font-size="14.00" fill="#2d3436">• Schema Check</text>
<text xml:space="preserve" text-anchor="middle" x="707.5" y="-281.75" font-family="Arial Bold" font-size="14.00" fill="#2d3436">• Quality Gate</text>
</g>
<!-- 863182a10a0a43638852f43efe5196f3&#45;&gt;0b1a9dedb51f401582c626dc36835716 -->
<g id="edge4" class="edge">
<title>863182a10a0a43638852f43efe5196f3&#45;&gt;0b1a9dedb51f401582c626dc36835716</title>
<path fill="none" stroke="#17a2b8" d="M429,-376.5C429,-376.5 645.7,-376.5 645.7,-376.5"/>
<polygon fill="#17a2b8" stroke="#17a2b8" points="645.7,-380 655.7,-376.5 645.7,-373 645.7,-380"/>
<text xml:space="preserve" text-anchor="middle" x="543.1" y="-380.65" font-family="Sans-Serif" font-size="13.00" fill="#2d3436">Validated Data</text>
</g>
<!-- 0f0802afb350459cbf070df8d68883a3 -->
<g id="node6" class="node">
<title>0f0802afb350459cbf070df8d68883a3</title>
<image xlink:href="D:\Data Engineering\Projects\news_intelligence\.venv\Lib\site-packages\resources/programming/language\python.png" width="100.8px" height="100.8px" preserveAspectRatio="xMinYMin meet" x="964.15" y="-562.9"/>
<text xml:space="preserve" text-anchor="middle" x="1014.55" y="-449.25" font-family="Arial Bold" font-size="14.00" fill="#2d3436">NLP Processor</text>
<text xml:space="preserve" text-anchor="middle" x="1014.55" y="-433.5" font-family="Arial Bold" font-size="14.00" fill="#2d3436">• Text Cleaning</text>
<text xml:space="preserve" text-anchor="middle" x="1014.55" y="-417.75" font-family="Arial Bold" font-size="14.00" fill="#2d3436">• Language Detection</text>
</g>
<!-- 0b1a9dedb51f401582c626dc36835716&#45;&gt;0f0802afb350459cbf070df8d68883a3 -->
<g id="edge5" class="edge">
<title>0b1a9dedb51f401582c626dc36835716&#45;&gt;0f0802afb350459cbf070df8d68883a3</title>
<path fill="none" stroke="#20c997" d="M757.86,-444.5C757.86,-444.5 952.65,-444.5 952.65,-444.5"/>
<polygon fill="#20c997" stroke="#20c997" points="952.65,-448 962.65,-444.5 952.65,-441 952.65,-448"/>
<text xml:space="preserve" text-anchor="middle" x="861.03" y="-449.65" font-family="Sans-Serif" font-size="13.00" fill="#2d3436">Clean Data</text>
</g>
<!-- 2b6ff3cfce994f36a7c227e66f8391d4 -->
<g id="node12" class="node">
<title>2b6ff3cfce994f36a7c227e66f8391d4</title>
<image xlink:href="D:\Data Engineering\Projects\news_intelligence\.venv\Lib\site-packages\resources/generic/database\sql.png" width="100.8px" height="100.8px" preserveAspectRatio="xMinYMin meet" x="2276.35" y="-296.9"/>
<text xml:space="preserve" text-anchor="middle" x="2326.75" y="-183.25" font-family="Arial Bold" font-size="14.00" fill="#2d3436">Quality Metrics</text>
<text xml:space="preserve" text-anchor="middle" x="2326.75" y="-167.5" font-family="Arial Bold" font-size="14.00" fill="#2d3436">• Performance Data</text>
<text xml:space="preserve" text-anchor="middle" x="2326.75" y="-151.75" font-family="Arial Bold" font-size="14.00" fill="#2d3436">• Audit Trail</text>
</g>
<!-- 0b1a9dedb51f401582c626dc36835716&#45;&gt;2b6ff3cfce994f36a7c227e66f8391d4 -->
<g id="edge11" class="edge">
<title>0b1a9dedb51f401582c626dc36835716&#45;&gt;2b6ff3cfce994f36a7c227e66f8391d4</title>
<path fill="none" stroke="#6c757d" d="M757.74,-311.5C757.74,-311.5 2265.19,-311.5 2265.19,-311.5"/>
<polygon fill="#6c757d" stroke="#6c757d" points="2265.19,-315 2275.19,-311.5 2265.19,-308 2265.19,-315"/>
<text xml:space="preserve" text-anchor="middle" x="1517.5" y="-310.65" font-family="Sans-Serif" font-size="13.00" fill="#2d3436">Quality Data</text>
</g>
<!-- 37213357a312409f91addd5b8abd61b2 -->
<g id="node7" class="node">
<title>37213357a312409f91addd5b8abd61b2</title>
<image xlink:href="D:\Data Engineering\Projects\news_intelligence\.venv\Lib\site-packages\resources/programming/language\python.png" width="100.8px" height="100.8px" preserveAspectRatio="xMinYMin meet" x="1294.45" y="-562.9"/>
<text xml:space="preserve" text-anchor="middle" x="1344.85" y="-449.25" font-family="Arial Bold" font-size="14.00" fill="#2d3436">Sentiment Analyzer</text>
<text xml:space="preserve" text-anchor="middle" x="1344.85" y="-433.5" font-family="Arial Bold" font-size="14.00" fill="#2d3436">• Polarity Scoring</text>
<text xml:space="preserve" text-anchor="middle" x="1344.85" y="-417.75" font-family="Arial Bold" font-size="14.00" fill="#2d3436">• Confidence Rating</text>
</g>
<!-- 0f0802afb350459cbf070df8d68883a3&#45;&gt;37213357a312409f91addd5b8abd61b2 -->
<g id="edge6" class="edge">
<title>0f0802afb350459cbf070df8d68883a3&#45;&gt;37213357a312409f91addd5b8abd61b2</title>
<path fill="none" stroke="#6f42c1" d="M1064.72,-512.5C1064.72,-512.5 1282.97,-512.5 1282.97,-512.5"/>
<polygon fill="#6f42c1" stroke="#6f42c1" points="1282.97,-516 1292.97,-512.5 1282.97,-509 1282.97,-516"/>
<text xml:space="preserve" text-anchor="middle" x="1179.7" y="-516.65" font-family="Sans-Serif" font-size="13.00" fill="#2d3436">Processed Text</text>
</g>
<!-- 4eeb3f9af91749ed9babaa5c5e5c78ad -->
<g id="node8" class="node">
<title>4eeb3f9af91749ed9babaa5c5e5c78ad</title>
<image xlink:href="D:\Data Engineering\Projects\news_intelligence\.venv\Lib\site-packages\resources/programming/language\python.png" width="100.8px" height="100.8px" preserveAspectRatio="xMinYMin meet" x="1639.75" y="-562.9"/>
<text xml:space="preserve" text-anchor="middle" x="1690.15" y="-449.25" font-family="Arial Bold" font-size="14.00" fill="#2d3436">Keyword Extractor</text>
<text xml:space="preserve" text-anchor="middle" x="1690.15" y="-433.5" font-family="Arial Bold" font-size="14.00" fill="#2d3436">• TF&#45;IDF Algorithm</text>
<text xml:space="preserve" text-anchor="middle" x="1690.15" y="-417.75" font-family="Arial Bold" font-size="14.00" fill="#2d3436">• N&#45;gram Analysis</text>
</g>
<!-- 37213357a312409f91addd5b8abd61b2&#45;&gt;4eeb3f9af91749ed9babaa5c5e5c78ad -->
<g id="edge7" class="edge">
<title>37213357a312409f91addd5b8abd61b2&#45;&gt;4eeb3f9af91749ed9babaa5c5e5c78ad</title>
<path fill="none" stroke="#e83e8c" d="M1395.06,-512.5C1395.06,-512.5 1628.37,-512.5 1628.37,-512.5"/>
<polygon fill="#e83e8c" stroke="#e83e8c" points="1628.37,-516 1638.37,-512.5 1628.37,-509 1628.37,-516"/>
<text xml:space="preserve" text-anchor="middle" x="1517.5" y="-516.65" font-family="Sans-Serif" font-size="13.00" fill="#2d3436">Sentiment Scores</text>
</g>
<!-- 8f1f03dfb66c4ffeb646e3444caa6032 -->
<g id="node9" class="node">
<title>8f1f03dfb66c4ffeb646e3444caa6032</title>
<image xlink:href="D:\Data Engineering\Projects\news_intelligence\.venv\Lib\site-packages\resources/programming/language\python.png" width="100.8px" height="100.8px" preserveAspectRatio="xMinYMin meet" x="1940.05" y="-562.9"/>
<text xml:space="preserve" text-anchor="middle" x="1990.45" y="-449.25" font-family="Arial Bold" font-size="14.00" fill="#2d3436">Auto Categorizer</text>
<text xml:space="preserve" text-anchor="middle" x="1990.45" y="-433.5" font-family="Arial Bold" font-size="14.00" fill="#2d3436">• ML Classification</text>
<text xml:space="preserve" text-anchor="middle" x="1990.45" y="-417.75" font-family="Arial Bold" font-size="14.00" fill="#2d3436">• 9 Categories</text>
</g>
<!-- 4eeb3f9af91749ed9babaa5c5e5c78ad&#45;&gt;8f1f03dfb66c4ffeb646e3444caa6032 -->
<g id="edge8" class="edge">
<title>4eeb3f9af91749ed9babaa5c5e5c78ad&#45;&gt;8f1f03dfb66c4ffeb646e3444caa6032</title>
<path fill="none" stroke="#fd7e14" d="M1740.41,-512.5C1740.41,-512.5 1929.01,-512.5 1929.01,-512.5"/>
<polygon fill="#fd7e14" stroke="#fd7e14" points="1929.01,-516 1939.01,-512.5 1929.01,-509 1929.01,-516"/>
<text xml:space="preserve" text-anchor="middle" x="1840.3" y="-516.65" font-family="Sans-Serif" font-size="13.00" fill="#2d3436">Keywords</text>
</g>
<!-- 41bcaa50a8254f21b784491ac8f3ce46 -->
<g id="node10" class="node">
<title>41bcaa50a8254f21b784491ac8f3ce46</title>
<image xlink:href="D:\Data Engineering\Projects\news_intelligence\.venv\Lib\site-packages\resources/generic/database\sql.png" width="100.8px" height="100.8px" preserveAspectRatio="xMinYMin meet" x="2276.35" y="-828.9"/>
<text xml:space="preserve" text-anchor="middle" x="2326.75" y="-715.25" font-family="Arial Bold" font-size="14.00" fill="#2d3436">Raw Articles</text>
<text xml:space="preserve" text-anchor="middle" x="2326.75" y="-699.5" font-family="Arial Bold" font-size="14.00" fill="#2d3436">• JSON Format</text>
<text xml:space="preserve" text-anchor="middle" x="2326.75" y="-683.75" font-family="Arial Bold" font-size="14.00" fill="#2d3436">• Full Text Index</text>
</g>
<!-- 8f1f03dfb66c4ffeb646e3444caa6032&#45;&gt;41bcaa50a8254f21b784491ac8f3ce46 -->
<g id="edge9" class="edge">
<title>8f1f03dfb66c4ffeb646e3444caa6032&#45;&gt;41bcaa50a8254f21b784491ac8f3ce46</title>
<path fill="none" stroke="#dc3545" d="M1990.75,-609.69C1990.75,-650.78 1990.75,-689.3 1990.75,-689.3 1990.75,-689.3 2264.93,-689.3 2264.93,-689.3"/>
<polygon fill="#dc3545" stroke="#dc3545" points="2264.93,-692.8 2274.93,-689.3 2264.93,-685.8 2264.93,-692.8"/>
<text xml:space="preserve" text-anchor="middle" x="2158.6" y="-696.65" font-family="Sans-Serif" font-size="13.00" fill="#2d3436">Enriched Data</text>
</g>
<!-- 1852a6461d09424ebdd3ab21cdf0e806 -->
<g id="node11" class="node">
<title>1852a6461d09424ebdd3ab21cdf0e806</title>
<image xlink:href="D:\Data Engineering\Projects\news_intelligence\.venv\Lib\site-packages\resources/generic/database\sql.png" width="100.8px" height="100.8px" preserveAspectRatio="xMinYMin meet" x="2276.35" y="-562.9"/>
<text xml:space="preserve" text-anchor="middle" x="2326.75" y="-449.25" font-family="Arial Bold" font-size="14.00" fill="#2d3436">Processed Data</text>
<text xml:space="preserve" text-anchor="middle" x="2326.75" y="-433.5" font-family="Arial Bold" font-size="14.00" fill="#2d3436">• Normalized Schema</text>
<text xml:space="preserve" text-anchor="middle" x="2326.75" y="-417.75" font-family="Arial Bold" font-size="14.00" fill="#2d3436">• Optimized Queries</text>
</g>
<!-- 8f1f03dfb66c4ffeb646e3444caa6032&#45;&gt;1852a6461d09424ebdd3ab21cdf0e806 -->
<g id="edge10" class="edge">
<title>8f1f03dfb66c4ffeb646e3444caa6032&#45;&gt;1852a6461d09424ebdd3ab21cdf0e806</title>
<path fill="none" stroke="#198754" d="M2040.8,-512.5C2040.8,-512.5 2265.09,-512.5 2265.09,-512.5"/>
<polygon fill="#198754" stroke="#198754" points="2265.09,-516 2275.09,-512.5 2265.09,-509 2265.09,-516"/>
<text xml:space="preserve" text-anchor="middle" x="2158.6" y="-516.65" font-family="Sans-Serif" font-size="13.00" fill="#2d3436">Structured Data</text>
</g>
<!-- df8a2e342adb423da1581eafa131e656 -->
<g id="node13" class="node">
<title>df8a2e342adb423da1581eafa131e656</title>
<image xlink:href="D:\Data Engineering\Projects\news_intelligence\.venv\Lib\site-packages\resources/programming/language\python.png" width="100.8px" height="100.8px" preserveAspectRatio="xMinYMin meet" x="2594.65" y="-807.9"/>
<text xml:space="preserve" text-anchor="middle" x="2645.05" y="-694.25" font-family="Arial Bold" font-size="14.00" fill="#2d3436">Trend Analyzer</text>
<text xml:space="preserve" text-anchor="middle" x="2645.05" y="-678.5" font-family="Arial Bold" font-size="14.00" fill="#2d3436">• Temporal Patterns</text>
<text xml:space="preserve" text-anchor="middle" x="2645.05" y="-662.75" font-family="Arial Bold" font-size="14.00" fill="#2d3436">• Velocity Tracking</text>
</g>
<!-- 1852a6461d09424ebdd3ab21cdf0e806&#45;&gt;df8a2e342adb423da1581eafa131e656 -->
<g id="edge12" class="edge">
<title>1852a6461d09424ebdd3ab21cdf0e806&#45;&gt;df8a2e342adb423da1581eafa131e656</title>
<path fill="none" stroke="#0d6efd" d="M2377.14,-599.2C2466.81,-599.2 2644.75,-599.2 2644.75,-599.2 2644.75,-599.2 2644.75,-648.89 2644.75,-648.89"/>
<polygon fill="#0d6efd" stroke="#0d6efd" points="2641.25,-648.89 2644.75,-658.89 2648.25,-648.89 2641.25,-648.89"/>
<text xml:space="preserve" text-anchor="middle" x="2485.9" y="-638.65" font-family="Sans-Serif" font-size="13.00" fill="#2d3436">Time Series</text>
</g>
<!-- 806b2815abfc43518c5573a63b90abb7 -->
<g id="node16" class="node">
<title>806b2815abfc43518c5573a63b90abb7</title>
<image xlink:href="D:\Data Engineering\Projects\news_intelligence\.venv\Lib\site-packages\resources/programming/language\python.png" width="100.8px" height="100.8px" preserveAspectRatio="xMinYMin meet" x="2885.95" y="-355.9"/>
<text xml:space="preserve" text-anchor="middle" x="2936.35" y="-242.25" font-family="Arial Bold" font-size="14.00" fill="#2d3436">REST API</text>
<text xml:space="preserve" text-anchor="middle" x="2936.35" y="-226.5" font-family="Arial Bold" font-size="14.00" fill="#2d3436">• Health Endpoints</text>
<text xml:space="preserve" text-anchor="middle" x="2936.35" y="-210.75" font-family="Arial Bold" font-size="14.00" fill="#2d3436">• Metrics API</text>
</g>
<!-- 1852a6461d09424ebdd3ab21cdf0e806&#45;&gt;806b2815abfc43518c5573a63b90abb7 -->
<g id="edge16" class="edge">
<title>1852a6461d09424ebdd3ab21cdf0e806&#45;&gt;806b2815abfc43518c5573a63b90abb7</title>
<path fill="none" stroke="#0dcaf0" d="M2309.75,-415.59C2309.75,-389.82 2309.75,-369 2309.75,-369 2309.75,-369 2874.62,-369 2874.62,-369"/>
<polygon fill="#0dcaf0" stroke="#0dcaf0" points="2874.62,-372.5 2884.62,-369 2874.62,-365.5 2874.62,-372.5"/>
<text xml:space="preserve" text-anchor="middle" x="2645.05" y="-309.65" font-family="Sans-Serif" font-size="13.00" fill="#2d3436">API Data</text>
</g>
<!-- c3c52b2c769d41bf944232c2e239c9ed -->
<g id="node14" class="node">
<title>c3c52b2c769d41bf944232c2e239c9ed</title>
<image xlink:href="D:\Data Engineering\Projects\news_intelligence\.venv\Lib\site-packages\resources/onprem/monitoring\prometheus.png" width="100.8px" height="100.8px" preserveAspectRatio="xMinYMin meet" x="2594.65" y="-541.9"/>
<text xml:space="preserve" text-anchor="middle" x="2645.05" y="-428.25" font-family="Arial Bold" font-size="14.00" fill="#2d3436">Quality Monitor</text>
<text xml:space="preserve" text-anchor="middle" x="2645.05" y="-412.5" font-family="Arial Bold" font-size="14.00" fill="#2d3436">• Data Validation</text>
<text xml:space="preserve" text-anchor="middle" x="2645.05" y="-396.75" font-family="Arial Bold" font-size="14.00" fill="#2d3436">• SLA Tracking</text>
</g>
<!-- 2b6ff3cfce994f36a7c227e66f8391d4&#45;&gt;c3c52b2c769d41bf944232c2e239c9ed -->
<g id="edge13" class="edge">
<title>2b6ff3cfce994f36a7c227e66f8391d4&#45;&gt;c3c52b2c769d41bf944232c2e239c9ed</title>
<path fill="none" stroke="#b02a37" d="M2343.75,-343.6C2343.75,-376.36 2343.75,-404.8 2343.75,-404.8 2343.75,-404.8 2583.44,-404.8 2583.44,-404.8"/>
<polygon fill="#b02a37" stroke="#b02a37" points="2583.44,-408.3 2593.44,-404.8 2583.44,-401.3 2583.44,-408.3"/>
<text xml:space="preserve" text-anchor="middle" x="2485.9" y="-250.65" font-family="Sans-Serif" font-size="13.00" fill="#2d3436">Quality Stats</text>
</g>
<!-- cc9f04d7eff7452893528eaf4d08756f -->
<g id="node15" class="node">
<title>cc9f04d7eff7452893528eaf4d08756f</title>
<image xlink:href="D:\Data Engineering\Projects\news_intelligence\.venv\Lib\site-packages\resources/programming/language\python.png" width="100.8px" height="100.8px" preserveAspectRatio="xMinYMin meet" x="2885.95" y="-621.9"/>
<text xml:space="preserve" text-anchor="middle" x="2936.35" y="-508.25" font-family="Arial Bold" font-size="14.00" fill="#2d3436">Interactive Dashboard</text>
<text xml:space="preserve" text-anchor="middle" x="2936.35" y="-492.5" font-family="Arial Bold" font-size="14.00" fill="#2d3436">• Real&#45;time Updates</text>
<text xml:space="preserve" text-anchor="middle" x="2936.35" y="-476.75" font-family="Arial Bold" font-size="14.00" fill="#2d3436">• Export Features</text>
</g>
<!-- df8a2e342adb423da1581eafa131e656&#45;&gt;cc9f04d7eff7452893528eaf4d08756f -->
<g id="edge14" class="edge">
<title>df8a2e342adb423da1581eafa131e656&#45;&gt;cc9f04d7eff7452893528eaf4d08756f</title>
<path fill="none" stroke="#6610f2" d="M2695.13,-664.5C2695.13,-664.5 2874.44,-664.5 2874.44,-664.5"/>
<polygon fill="#6610f2" stroke="#6610f2" points="2874.44,-668 2884.44,-664.5 2874.44,-661 2874.44,-668"/>
<text xml:space="preserve" text-anchor="middle" x="2790.7" y="-715.65" font-family="Sans-Serif" font-size="13.00" fill="#2d3436">Insights</text>
</g>
<!-- c3c52b2c769d41bf944232c2e239c9ed&#45;&gt;cc9f04d7eff7452893528eaf4d08756f -->
<g id="edge15" class="edge">
<title>c3c52b2c769d41bf944232c2e239c9ed&#45;&gt;cc9f04d7eff7452893528eaf4d08756f</title>
<path fill="none" stroke="#d63384" d="M2695.13,-531.5C2695.13,-531.5 2874.44,-531.5 2874.44,-531.5"/>
<polygon fill="#d63384" stroke="#d63384" points="2874.44,-535 2884.44,-531.5 2874.44,-528 2874.44,-535"/>
<text xml:space="preserve" text-anchor="middle" x="2790.7" y="-535.65" font-family="Sans-Serif" font-size="13.00" fill="#2d3436">Reports</text>
</g>
</g>
</svg>
