<?xml version="1.0" encoding="UTF-8" standalone="no"?>
<!DOCTYPE svg PUBLIC "-//W3C//DTD SVG 1.1//EN"
 "http://www.w3.org/Graphics/SVG/1.1/DTD/svg11.dtd">
<!-- Generated by graphviz version 13.1.0 (20250701.0955)
 -->
<!-- Title: News Intelligence Pipeline &#45; Deployment Options Pages: 1 -->
<svg width="8061pt" height="8276pt"
 viewBox="0.00 0.00 8061.00 8276.00" xmlns="http://www.w3.org/2000/svg" xmlns:xlink="http://www.w3.org/1999/xlink">
<g id="graph0" class="graph" transform="scale(4.16667 4.16667) rotate(0) translate(144 1842.3)">
<title>News Intelligence Pipeline &#45; Deployment Options</title>
<polygon fill="white" stroke="none" points="-144,144 -144,-1842.3 1790.75,-1842.3 1790.75,144 -144,144"/>
<text xml:space="preserve" text-anchor="middle" x="823.38" y="-8.9" font-family="Arial" font-size="28.00" fill="#2d3436">News Intelligence Pipeline &#45; Deployment Options</text>
<g id="clust1" class="cluster">
<title>cluster_Local Development</title>
<path fill="#f0f8ff" stroke="#aeb6be" d="M20,-1112.2C20,-1112.2 458,-1112.2 458,-1112.2 464,-1112.2 470,-1118.2 470,-1124.2 470,-1124.2 470,-1334.35 470,-1334.35 470,-1340.35 464,-1346.35 458,-1346.35 458,-1346.35 20,-1346.35 20,-1346.35 14,-1346.35 8,-1340.35 8,-1334.35 8,-1334.35 8,-1124.2 8,-1124.2 8,-1118.2 14,-1112.2 20,-1112.2"/>
<text xml:space="preserve" text-anchor="middle" x="65.88" y="-1330.95" font-family="Sans-Serif" font-size="12.00" fill="#2d3436">Local Development</text>
</g>
<g id="clust2" class="cluster">
<title>cluster_Containerization</title>
<path fill="#f5f5f0" stroke="#aeb6be" d="M980,-47.5C980,-47.5 1154,-47.5 1154,-47.5 1160,-47.5 1166,-53.5 1166,-59.5 1166,-59.5 1166,-624.55 1166,-624.55 1166,-630.55 1160,-636.55 1154,-636.55 1154,-636.55 980,-636.55 980,-636.55 974,-636.55 968,-630.55 968,-624.55 968,-624.55 968,-59.5 968,-59.5 968,-53.5 974,-47.5 980,-47.5"/>
<text xml:space="preserve" text-anchor="middle" x="1018.75" y="-621.15" font-family="Sans-Serif" font-size="12.00" fill="#2d3436">Containerization</text>
</g>
<g id="clust3" class="cluster">
<title>cluster_AWS Cloud Platform</title>
<path fill="#fff2e6" stroke="#aeb6be" d="M482,-47.5C482,-47.5 920,-47.5 920,-47.5 926,-47.5 932,-53.5 932,-59.5 932,-59.5 932,-269.65 932,-269.65 932,-275.65 926,-281.65 920,-281.65 920,-281.65 482,-281.65 482,-281.65 476,-281.65 470,-275.65 470,-269.65 470,-269.65 470,-59.5 470,-59.5 470,-53.5 476,-47.5 482,-47.5"/>
<text xml:space="preserve" text-anchor="middle" x="531.25" y="-266.25" font-family="Sans-Serif" font-size="12.00" fill="#2d3436">AWS Cloud Platform</text>
</g>
<g id="clust4" class="cluster">
<title>cluster_Multi&#45;Cloud Options</title>
<path fill="#e6f3ff" stroke="#aeb6be" d="M1186,-47.5C1186,-47.5 1624,-47.5 1624,-47.5 1630,-47.5 1636,-53.5 1636,-59.5 1636,-59.5 1636,-269.65 1636,-269.65 1636,-275.65 1630,-281.65 1624,-281.65 1624,-281.65 1186,-281.65 1186,-281.65 1180,-281.65 1174,-275.65 1174,-269.65 1174,-269.65 1174,-59.5 1174,-59.5 1174,-53.5 1180,-47.5 1186,-47.5"/>
<text xml:space="preserve" text-anchor="middle" x="1234.5" y="-266.25" font-family="Sans-Serif" font-size="12.00" fill="#2d3436">Multi&#45;Cloud Options</text>
</g>
<g id="clust5" class="cluster">
<title>cluster_DevOps Pipeline</title>
<path fill="#f0fff0" stroke="#aeb6be" d="M492,-402.4C492,-402.4 641,-402.4 641,-402.4 647,-402.4 653,-408.4 653,-414.4 653,-414.4 653,-1334.35 653,-1334.35 653,-1340.35 647,-1346.35 641,-1346.35 641,-1346.35 492,-1346.35 492,-1346.35 486,-1346.35 480,-1340.35 480,-1334.35 480,-1334.35 480,-414.4 480,-414.4 480,-408.4 486,-402.4 492,-402.4"/>
<text xml:space="preserve" text-anchor="middle" x="530.75" y="-1330.95" font-family="Sans-Serif" font-size="12.00" fill="#2d3436">DevOps Pipeline</text>
</g>
<!-- ab6d5f2c7be44aec94f3a6a077d3e1cb -->
<g id="node1" class="node">
<title>ab6d5f2c7be44aec94f3a6a077d3e1cb</title>
<image xlink:href="D:\Data Engineering\Projects\news_intelligence\.venv\Lib\site-packages\resources/programming/language\python.png" width="100.8px" height="100.8px" preserveAspectRatio="xMinYMin meet" x="361.6" y="-1637.1"/>
<text xml:space="preserve" text-anchor="middle" x="412" y="-1524.8" font-family="Arial Bold" font-size="14.00" fill="#2d3436">Source Code</text>
<text xml:space="preserve" text-anchor="middle" x="412" y="-1509.05" font-family="Arial Bold" font-size="14.00" fill="#2d3436">• 5 Python Files</text>
<text xml:space="preserve" text-anchor="middle" x="412" y="-1493.3" font-family="Arial Bold" font-size="14.00" fill="#2d3436">• Clean Architecture</text>
<text xml:space="preserve" text-anchor="middle" x="412" y="-1477.55" font-family="Arial Bold" font-size="14.00" fill="#2d3436">• Production Ready</text>
</g>
<!-- dc4ba22113484c35b6ac228dee13db4d -->
<g id="node2" class="node">
<title>dc4ba22113484c35b6ac228dee13db4d</title>
<image xlink:href="D:\Data Engineering\Projects\news_intelligence\.venv\Lib\site-packages\resources/generic/database\sql.png" width="100.8px" height="100.8px" preserveAspectRatio="xMinYMin meet" x="15.6" y="-1267.8"/>
<text xml:space="preserve" text-anchor="middle" x="66" y="-1154.15" font-family="Arial Bold" font-size="14.00" fill="#2d3436">SQLite Database</text>
<text xml:space="preserve" text-anchor="middle" x="66" y="-1138.4" font-family="Arial Bold" font-size="14.00" fill="#2d3436">• File&#45;based</text>
<text xml:space="preserve" text-anchor="middle" x="66" y="-1122.65" font-family="Arial Bold" font-size="14.00" fill="#2d3436">• Zero Configuration</text>
</g>
<!-- ab6d5f2c7be44aec94f3a6a077d3e1cb&#45;&gt;dc4ba22113484c35b6ac228dee13db4d -->
<g id="edge1" class="edge">
<title>ab6d5f2c7be44aec94f3a6a077d3e1cb&#45;&gt;dc4ba22113484c35b6ac228dee13db4d</title>
<path fill="none" stroke="#28a745" d="M361.69,-1623.5C265.73,-1623.5 66,-1623.5 66,-1623.5 66,-1623.5 66,-1325.93 66,-1325.93"/>
<polygon fill="#28a745" stroke="#28a745" points="69.5,-1325.93 66,-1315.93 62.5,-1325.93 69.5,-1325.93"/>
<text xml:space="preserve" text-anchor="middle" x="122.75" y="-1390.75" font-family="Sans-Serif" font-size="13.00" fill="#2d3436">Local Development</text>
</g>
<!-- 71a942fd9c694bcdb8cac1f34cb4a23e -->
<g id="node3" class="node">
<title>71a942fd9c694bcdb8cac1f34cb4a23e</title>
<image xlink:href="D:\Data Engineering\Projects\news_intelligence\.venv\Lib\site-packages\resources/programming/language\python.png" width="100.8px" height="100.8px" preserveAspectRatio="xMinYMin meet" x="188.6" y="-1267.8"/>
<text xml:space="preserve" text-anchor="middle" x="239" y="-1154.15" font-family="Arial Bold" font-size="14.00" fill="#2d3436">Streamlit Server</text>
<text xml:space="preserve" text-anchor="middle" x="239" y="-1138.4" font-family="Arial Bold" font-size="14.00" fill="#2d3436">• Development Mode</text>
<text xml:space="preserve" text-anchor="middle" x="239" y="-1122.65" font-family="Arial Bold" font-size="14.00" fill="#2d3436">• Hot Reload</text>
</g>
<!-- ab6d5f2c7be44aec94f3a6a077d3e1cb&#45;&gt;71a942fd9c694bcdb8cac1f34cb4a23e -->
<g id="edge2" class="edge">
<title>ab6d5f2c7be44aec94f3a6a077d3e1cb&#45;&gt;71a942fd9c694bcdb8cac1f34cb4a23e</title>
<path fill="none" stroke="#17a2b8" d="M361.96,-1549.5C310.87,-1549.5 239,-1549.5 239,-1549.5 239,-1549.5 239,-1325.86 239,-1325.86"/>
<polygon fill="#17a2b8" stroke="#17a2b8" points="242.5,-1325.86 239,-1315.86 235.5,-1325.86 242.5,-1325.86"/>
<text xml:space="preserve" text-anchor="middle" x="296.12" y="-1390.75" font-family="Sans-Serif" font-size="13.00" fill="#2d3436">Local Testing</text>
</g>
<!-- 57d61d98bdfa44e2aaebee27aa2d547b -->
<g id="node4" class="node">
<title>57d61d98bdfa44e2aaebee27aa2d547b</title>
<image xlink:href="D:\Data Engineering\Projects\news_intelligence\.venv\Lib\site-packages\resources/generic/compute\rack.png" width="100.8px" height="100.8px" preserveAspectRatio="xMinYMin meet" x="361.6" y="-1267.8"/>
<text xml:space="preserve" text-anchor="middle" x="412" y="-1154.15" font-family="Arial Bold" font-size="14.00" fill="#2d3436">Local Processing</text>
<text xml:space="preserve" text-anchor="middle" x="412" y="-1138.4" font-family="Arial Bold" font-size="14.00" fill="#2d3436">• Debug Mode</text>
<text xml:space="preserve" text-anchor="middle" x="412" y="-1122.65" font-family="Arial Bold" font-size="14.00" fill="#2d3436">• Full Logging</text>
</g>
<!-- ab6d5f2c7be44aec94f3a6a077d3e1cb&#45;&gt;57d61d98bdfa44e2aaebee27aa2d547b -->
<g id="edge3" class="edge">
<title>ab6d5f2c7be44aec94f3a6a077d3e1cb&#45;&gt;57d61d98bdfa44e2aaebee27aa2d547b</title>
<path fill="none" stroke="#ffc107" d="M412,-1475.15C412,-1475.15 412,-1326.09 412,-1326.09"/>
<polygon fill="#ffc107" stroke="#ffc107" points="415.5,-1326.09 412,-1316.09 408.5,-1326.09 415.5,-1326.09"/>
<text xml:space="preserve" text-anchor="middle" x="448.38" y="-1390.75" font-family="Sans-Serif" font-size="13.00" fill="#2d3436">Debug Mode</text>
</g>
<!-- 8efd65d654de45e1bb67cde675b278fd -->
<g id="node5" class="node">
<title>8efd65d654de45e1bb67cde675b278fd</title>
<image xlink:href="D:\Data Engineering\Projects\news_intelligence\.venv\Lib\site-packages\resources/aws/compute\elastic-container-service.png" width="100.8px" height="100.8px" preserveAspectRatio="xMinYMin meet" x="986.6" y="-558"/>
<text xml:space="preserve" text-anchor="middle" x="1037" y="-444.35" font-family="Arial Bold" font-size="14.00" fill="#2d3436">Docker Container</text>
<text xml:space="preserve" text-anchor="middle" x="1037" y="-428.6" font-family="Arial Bold" font-size="14.00" fill="#2d3436">• Multi&#45;stage Build</text>
<text xml:space="preserve" text-anchor="middle" x="1037" y="-412.85" font-family="Arial Bold" font-size="14.00" fill="#2d3436">• Optimized Layers</text>
</g>
<!-- ab6d5f2c7be44aec94f3a6a077d3e1cb&#45;&gt;8efd65d654de45e1bb67cde675b278fd -->
<g id="edge4" class="edge">
<title>ab6d5f2c7be44aec94f3a6a077d3e1cb&#45;&gt;8efd65d654de45e1bb67cde675b278fd</title>
<path fill="none" stroke="#6f42c1" d="M462.35,-1623.5C610.9,-1623.5 1037,-1623.5 1037,-1623.5 1037,-1623.5 1037,-616.19 1037,-616.19"/>
<polygon fill="#6f42c1" stroke="#6f42c1" points="1040.5,-616.19 1037,-606.19 1033.5,-616.19 1040.5,-616.19"/>
<text xml:space="preserve" text-anchor="middle" x="974.25" y="-1035.85" font-family="Sans-Serif" font-size="13.00" fill="#2d3436">Containerize</text>
</g>
<!-- 11eecec3b04c4d508d21002b0ee684e9 -->
<g id="node13" class="node">
<title>11eecec3b04c4d508d21002b0ee684e9</title>
<image xlink:href="D:\Data Engineering\Projects\news_intelligence\.venv\Lib\site-packages\resources/programming/language\python.png" width="100.8px" height="100.8px" preserveAspectRatio="xMinYMin meet" x="534.6" y="-1267.8"/>
<text xml:space="preserve" text-anchor="middle" x="585" y="-1154.15" font-family="Arial Bold" font-size="14.00" fill="#2d3436">GitHub Actions</text>
<text xml:space="preserve" text-anchor="middle" x="585" y="-1138.4" font-family="Arial Bold" font-size="14.00" fill="#2d3436">• Automated Testing</text>
<text xml:space="preserve" text-anchor="middle" x="585" y="-1122.65" font-family="Arial Bold" font-size="14.00" fill="#2d3436">• Multi&#45;environment</text>
</g>
<!-- ab6d5f2c7be44aec94f3a6a077d3e1cb&#45;&gt;11eecec3b04c4d508d21002b0ee684e9 -->
<g id="edge12" class="edge">
<title>ab6d5f2c7be44aec94f3a6a077d3e1cb&#45;&gt;11eecec3b04c4d508d21002b0ee684e9</title>
<path fill="none" stroke="#6c757d" d="M462.04,-1549.5C513.13,-1549.5 585,-1549.5 585,-1549.5 585,-1549.5 585,-1325.86 585,-1325.86"/>
<polygon fill="#6c757d" stroke="#6c757d" points="588.5,-1325.86 585,-1315.86 581.5,-1325.86 588.5,-1325.86"/>
<text xml:space="preserve" text-anchor="middle" x="598.38" y="-1390.75" font-family="Sans-Serif" font-size="13.00" fill="#2d3436">Git Push</text>
</g>
<!-- 1ff9f3afc7904bd1b312eb2bb2ce8d25 -->
<g id="node6" class="node">
<title>1ff9f3afc7904bd1b312eb2bb2ce8d25</title>
<image xlink:href="D:\Data Engineering\Projects\news_intelligence\.venv\Lib\site-packages\resources/aws/compute\elastic-container-service.png" width="100.8px" height="100.8px" preserveAspectRatio="xMinYMin meet" x="997.6" y="-203.1"/>
<text xml:space="preserve" text-anchor="middle" x="1048" y="-89.45" font-family="Arial Bold" font-size="14.00" fill="#2d3436">Docker Compose</text>
<text xml:space="preserve" text-anchor="middle" x="1048" y="-73.7" font-family="Arial Bold" font-size="14.00" fill="#2d3436">• Local Orchestration</text>
<text xml:space="preserve" text-anchor="middle" x="1048" y="-57.95" font-family="Arial Bold" font-size="14.00" fill="#2d3436">• Service Dependencies</text>
</g>
<!-- 8efd65d654de45e1bb67cde675b278fd&#45;&gt;1ff9f3afc7904bd1b312eb2bb2ce8d25 -->
<g id="edge5" class="edge">
<title>8efd65d654de45e1bb67cde675b278fd&#45;&gt;1ff9f3afc7904bd1b312eb2bb2ce8d25</title>
<path fill="none" stroke="#e83e8c" d="M1042.5,-410.62C1042.5,-410.62 1042.5,-261.38 1042.5,-261.38"/>
<polygon fill="#e83e8c" stroke="#e83e8c" points="1046,-261.38 1042.5,-251.38 1039,-261.38 1046,-261.38"/>
<text xml:space="preserve" text-anchor="middle" x="1103.12" y="-326.05" font-family="Sans-Serif" font-size="13.00" fill="#2d3436">Local Orchestration</text>
</g>
<!-- b9507733955c42168e10aa837d840cee -->
<g id="node7" class="node">
<title>b9507733955c42168e10aa837d840cee</title>
<image xlink:href="D:\Data Engineering\Projects\news_intelligence\.venv\Lib\site-packages\resources/aws/compute\elastic-container-service.png" width="100.8px" height="100.8px" preserveAspectRatio="xMinYMin meet" x="477.6" y="-203.1"/>
<text xml:space="preserve" text-anchor="middle" x="528" y="-89.45" font-family="Arial Bold" font-size="14.00" fill="#2d3436">ECS Fargate</text>
<text xml:space="preserve" text-anchor="middle" x="528" y="-73.7" font-family="Arial Bold" font-size="14.00" fill="#2d3436">• Serverless Containers</text>
<text xml:space="preserve" text-anchor="middle" x="528" y="-57.95" font-family="Arial Bold" font-size="14.00" fill="#2d3436">• Auto Scaling</text>
</g>
<!-- 8efd65d654de45e1bb67cde675b278fd&#45;&gt;b9507733955c42168e10aa837d840cee -->
<g id="edge6" class="edge">
<title>8efd65d654de45e1bb67cde675b278fd&#45;&gt;b9507733955c42168e10aa837d840cee</title>
<path fill="none" stroke="#fd7e14" d="M990.27,-410.5C990.27,-369.25 990.27,-330.5 990.27,-330.5 990.27,-330.5 551.8,-330.5 551.8,-330.5 551.8,-330.5 551.8,-261.18 551.8,-261.18"/>
<polygon fill="#fd7e14" stroke="#fd7e14" points="555.3,-261.18 551.8,-251.18 548.3,-261.18 555.3,-261.18"/>
<text xml:space="preserve" text-anchor="middle" x="624.88" y="-326.05" font-family="Sans-Serif" font-size="13.00" fill="#2d3436">AWS Deploy</text>
</g>
<!-- d009d2454fd74826bf73d15cb57ba482 -->
<g id="node8" class="node">
<title>d009d2454fd74826bf73d15cb57ba482</title>
<image xlink:href="D:\Data Engineering\Projects\news_intelligence\.venv\Lib\site-packages\resources/aws/compute\lambda.png" width="100.8px" height="100.8px" preserveAspectRatio="xMinYMin meet" x="650.6" y="-203.1"/>
<text xml:space="preserve" text-anchor="middle" x="701" y="-89.45" font-family="Arial Bold" font-size="14.00" fill="#2d3436">Lambda Functions</text>
<text xml:space="preserve" text-anchor="middle" x="701" y="-73.7" font-family="Arial Bold" font-size="14.00" fill="#2d3436">• Event&#45;driven</text>
<text xml:space="preserve" text-anchor="middle" x="701" y="-57.95" font-family="Arial Bold" font-size="14.00" fill="#2d3436">• Pay&#45;per&#45;execution</text>
</g>
<!-- 8efd65d654de45e1bb67cde675b278fd&#45;&gt;d009d2454fd74826bf73d15cb57ba482 -->
<g id="edge7" class="edge">
<title>8efd65d654de45e1bb67cde675b278fd&#45;&gt;d009d2454fd74826bf73d15cb57ba482</title>
<path fill="none" stroke="#20c997" d="M986.7,-507.5C892.96,-507.5 701,-507.5 701,-507.5 701,-507.5 701,-261.16 701,-261.16"/>
<polygon fill="#20c997" stroke="#20c997" points="704.5,-261.16 701,-251.16 697.5,-261.16 704.5,-261.16"/>
<text xml:space="preserve" text-anchor="middle" x="766.25" y="-326.05" font-family="Sans-Serif" font-size="13.00" fill="#2d3436">Serverless</text>
</g>
<!-- c89d702e86eb49cca3c633f4f9b4b665 -->
<g id="node9" class="node">
<title>c89d702e86eb49cca3c633f4f9b4b665</title>
<image xlink:href="D:\Data Engineering\Projects\news_intelligence\.venv\Lib\site-packages\resources/aws/network\elastic-load-balancing.png" width="100.8px" height="100.8px" preserveAspectRatio="xMinYMin meet" x="823.6" y="-203.1"/>
<text xml:space="preserve" text-anchor="middle" x="874" y="-89.45" font-family="Arial Bold" font-size="14.00" fill="#2d3436">App Runner</text>
<text xml:space="preserve" text-anchor="middle" x="874" y="-73.7" font-family="Arial Bold" font-size="14.00" fill="#2d3436">• Fully Managed</text>
<text xml:space="preserve" text-anchor="middle" x="874" y="-57.95" font-family="Arial Bold" font-size="14.00" fill="#2d3436">• Git Integration</text>
</g>
<!-- 8efd65d654de45e1bb67cde675b278fd&#45;&gt;c89d702e86eb49cca3c633f4f9b4b665 -->
<g id="edge8" class="edge">
<title>8efd65d654de45e1bb67cde675b278fd&#45;&gt;c89d702e86eb49cca3c633f4f9b4b665</title>
<path fill="none" stroke="#0d6efd" d="M993.93,-410.57C993.93,-305.43 993.93,-152.5 993.93,-152.5 993.93,-152.5 935.68,-152.5 935.68,-152.5"/>
<polygon fill="#0d6efd" stroke="#0d6efd" points="935.68,-149 925.68,-152.5 935.68,-156 935.68,-149"/>
<text xml:space="preserve" text-anchor="middle" x="921.75" y="-326.05" font-family="Sans-Serif" font-size="13.00" fill="#2d3436">Managed Service</text>
</g>
<!-- 6c02bb8f59574896943f17bae28f329e -->
<g id="node10" class="node">
<title>6c02bb8f59574896943f17bae28f329e</title>
<image xlink:href="D:\Data Engineering\Projects\news_intelligence\.venv\Lib\site-packages\resources/aws/compute\elastic-container-service.png" width="100.8px" height="100.8px" preserveAspectRatio="xMinYMin meet" x="1181.6" y="-203.1"/>
<text xml:space="preserve" text-anchor="middle" x="1232" y="-89.45" font-family="Arial Bold" font-size="14.00" fill="#2d3436">Azure Container</text>
<text xml:space="preserve" text-anchor="middle" x="1232" y="-73.7" font-family="Arial Bold" font-size="14.00" fill="#2d3436">Instances</text>
<text xml:space="preserve" text-anchor="middle" x="1232" y="-57.95" font-family="Arial Bold" font-size="14.00" fill="#2d3436">• Managed Service</text>
</g>
<!-- 8efd65d654de45e1bb67cde675b278fd&#45;&gt;6c02bb8f59574896943f17bae28f329e -->
<g id="edge9" class="edge">
<title>8efd65d654de45e1bb67cde675b278fd&#45;&gt;6c02bb8f59574896943f17bae28f329e</title>
<path fill="none" stroke="#6610f2" d="M1087.22,-459.5C1144.99,-459.5 1232,-459.5 1232,-459.5 1232,-459.5 1232,-261.29 1232,-261.29"/>
<polygon fill="#6610f2" stroke="#6610f2" points="1235.5,-261.29 1232,-251.29 1228.5,-261.29 1235.5,-261.29"/>
<text xml:space="preserve" text-anchor="middle" x="1272.88" y="-326.05" font-family="Sans-Serif" font-size="13.00" fill="#2d3436">Azure Deploy</text>
</g>
<!-- 76ffa47b0a234a75877f4717a9622440 -->
<g id="node11" class="node">
<title>76ffa47b0a234a75877f4717a9622440</title>
<image xlink:href="D:\Data Engineering\Projects\news_intelligence\.venv\Lib\site-packages\resources/aws/compute\elastic-container-service.png" width="100.8px" height="100.8px" preserveAspectRatio="xMinYMin meet" x="1354.6" y="-203.1"/>
<text xml:space="preserve" text-anchor="middle" x="1405" y="-89.45" font-family="Arial Bold" font-size="14.00" fill="#2d3436">Google Cloud Run</text>
<text xml:space="preserve" text-anchor="middle" x="1405" y="-73.7" font-family="Arial Bold" font-size="14.00" fill="#2d3436">• Serverless Platform</text>
<text xml:space="preserve" text-anchor="middle" x="1405" y="-57.95" font-family="Arial Bold" font-size="14.00" fill="#2d3436">• Knative Based</text>
</g>
<!-- 8efd65d654de45e1bb67cde675b278fd&#45;&gt;76ffa47b0a234a75877f4717a9622440 -->
<g id="edge10" class="edge">
<title>8efd65d654de45e1bb67cde675b278fd&#45;&gt;76ffa47b0a234a75877f4717a9622440</title>
<path fill="none" stroke="#d63384" d="M1087.4,-507.5C1188.18,-507.5 1405,-507.5 1405,-507.5 1405,-507.5 1405,-261.16 1405,-261.16"/>
<polygon fill="#d63384" stroke="#d63384" points="1408.5,-261.16 1405,-251.16 1401.5,-261.16 1408.5,-261.16"/>
<text xml:space="preserve" text-anchor="middle" x="1429.75" y="-326.05" font-family="Sans-Serif" font-size="13.00" fill="#2d3436">GCP Deploy</text>
</g>
<!-- 73796b602b974154b61e6b6e25a824d3 -->
<g id="node12" class="node">
<title>73796b602b974154b61e6b6e25a824d3</title>
<image xlink:href="D:\Data Engineering\Projects\news_intelligence\.venv\Lib\site-packages\resources/aws/compute\elastic-container-service.png" width="100.8px" height="100.8px" preserveAspectRatio="xMinYMin meet" x="1527.6" y="-203.1"/>
<text xml:space="preserve" text-anchor="middle" x="1578" y="-89.45" font-family="Arial Bold" font-size="14.00" fill="#2d3436">Railway Platform</text>
<text xml:space="preserve" text-anchor="middle" x="1578" y="-73.7" font-family="Arial Bold" font-size="14.00" fill="#2d3436">• One&#45;click Deploy</text>
<text xml:space="preserve" text-anchor="middle" x="1578" y="-57.95" font-family="Arial Bold" font-size="14.00" fill="#2d3436">• Git Integration</text>
</g>
<!-- 8efd65d654de45e1bb67cde675b278fd&#45;&gt;73796b602b974154b61e6b6e25a824d3 -->
<g id="edge11" class="edge">
<title>8efd65d654de45e1bb67cde675b278fd&#45;&gt;73796b602b974154b61e6b6e25a824d3</title>
<path fill="none" stroke="#fd7e14" d="M1086.93,-556.5C1220.86,-556.5 1578,-556.5 1578,-556.5 1578,-556.5 1578,-261.19 1578,-261.19"/>
<polygon fill="#fd7e14" stroke="#fd7e14" points="1581.5,-261.19 1578,-251.19 1574.5,-261.19 1581.5,-261.19"/>
<text xml:space="preserve" text-anchor="middle" x="1602.88" y="-326.05" font-family="Sans-Serif" font-size="13.00" fill="#2d3436">Railway Deploy</text>
</g>
<!-- 66402fbfefa64e19b135e25f82387477 -->
<g id="node14" class="node">
<title>66402fbfefa64e19b135e25f82387477</title>
<image xlink:href="D:\Data Engineering\Projects\news_intelligence\.venv\Lib\site-packages\resources/generic/network\firewall.png" width="100.8px" height="100.8px" preserveAspectRatio="xMinYMin meet" x="509.6" y="-912.9"/>
<text xml:space="preserve" text-anchor="middle" x="560" y="-799.25" font-family="Arial Bold" font-size="14.00" fill="#2d3436">Security Scanning</text>
<text xml:space="preserve" text-anchor="middle" x="560" y="-783.5" font-family="Arial Bold" font-size="14.00" fill="#2d3436">• Vulnerability Detection</text>
<text xml:space="preserve" text-anchor="middle" x="560" y="-767.75" font-family="Arial Bold" font-size="14.00" fill="#2d3436">• Compliance Checks</text>
</g>
<!-- 11eecec3b04c4d508d21002b0ee684e9&#45;&gt;66402fbfefa64e19b135e25f82387477 -->
<g id="edge13" class="edge">
<title>11eecec3b04c4d508d21002b0ee684e9&#45;&gt;66402fbfefa64e19b135e25f82387477</title>
<path fill="none" stroke="#dc3545" d="M572.5,-1120.42C572.5,-1120.42 572.5,-971.18 572.5,-971.18"/>
<polygon fill="#dc3545" stroke="#dc3545" points="576,-971.18 572.5,-961.18 569,-971.18 576,-971.18"/>
<text xml:space="preserve" text-anchor="middle" x="602.38" y="-1035.85" font-family="Sans-Serif" font-size="13.00" fill="#2d3436">Security Check</text>
</g>
<!-- 9122dc015db845738b5fc86a1aecc84c -->
<g id="node15" class="node">
<title>9122dc015db845738b5fc86a1aecc84c</title>
<image xlink:href="D:\Data Engineering\Projects\news_intelligence\.venv\Lib\site-packages\resources/aws/compute\elastic-container-service.png" width="100.8px" height="100.8px" preserveAspectRatio="xMinYMin meet" x="498.6" y="-558"/>
<text xml:space="preserve" text-anchor="middle" x="549" y="-444.35" font-family="Arial Bold" font-size="14.00" fill="#2d3436">Automated Deployment</text>
<text xml:space="preserve" text-anchor="middle" x="549" y="-428.6" font-family="Arial Bold" font-size="14.00" fill="#2d3436">• Blue/Green Strategy</text>
<text xml:space="preserve" text-anchor="middle" x="549" y="-412.85" font-family="Arial Bold" font-size="14.00" fill="#2d3436">• Rollback Support</text>
</g>
<!-- 66402fbfefa64e19b135e25f82387477&#45;&gt;9122dc015db845738b5fc86a1aecc84c -->
<g id="edge14" class="edge">
<title>66402fbfefa64e19b135e25f82387477&#45;&gt;9122dc015db845738b5fc86a1aecc84c</title>
<path fill="none" stroke="#198754" d="M554.5,-765.52C554.5,-765.52 554.5,-616.28 554.5,-616.28"/>
<polygon fill="#198754" stroke="#198754" points="558,-616.28 554.5,-606.28 551,-616.28 558,-616.28"/>
<text xml:space="preserve" text-anchor="middle" x="579.88" y="-680.95" font-family="Sans-Serif" font-size="13.00" fill="#2d3436">Deploy</text>
</g>
<!-- 9122dc015db845738b5fc86a1aecc84c&#45;&gt;b9507733955c42168e10aa837d840cee -->
<g id="edge15" class="edge">
<title>9122dc015db845738b5fc86a1aecc84c&#45;&gt;b9507733955c42168e10aa837d840cee</title>
<path fill="none" stroke="#0dcaf0" d="M525.2,-410.62C525.2,-410.62 525.2,-261.38 525.2,-261.38"/>
<polygon fill="#0dcaf0" stroke="#0dcaf0" points="528.7,-261.38 525.2,-251.38 521.7,-261.38 528.7,-261.38"/>
<text xml:space="preserve" text-anchor="middle" x="481.75" y="-326.05" font-family="Sans-Serif" font-size="13.00" fill="#2d3436">Production</text>
</g>
</g>
</svg>
