<?xml version="1.0" encoding="UTF-8" standalone="no"?>
<!DOCTYPE svg PUBLIC "-//W3C//DTD SVG 1.1//EN"
 "http://www.w3.org/Graphics/SVG/1.1/DTD/svg11.dtd">
<!-- Generated by graphviz version 13.1.0 (20250701.0955)
 -->
<!-- Title: News Intelligence Pipeline &#45; Technology Stack Pages: 1 -->
<svg width="6592pt" height="6843pt"
 viewBox="0.00 0.00 6592.00 6843.00" xmlns="http://www.w3.org/2000/svg" xmlns:xlink="http://www.w3.org/1999/xlink">
<g id="graph0" class="graph" transform="scale(4.16667 4.16667) rotate(0) translate(144 1498.35)">
<title>News Intelligence Pipeline &#45; Technology Stack</title>
<polygon fill="white" stroke="none" points="-144,144 -144,-1498.35 1438,-1498.35 1438,144 -144,144"/>
<text xml:space="preserve" text-anchor="middle" x="647" y="-8.9" font-family="Arial" font-size="28.00" fill="#2d3436">News Intelligence Pipeline &#45; Technology Stack</text>
<g id="clust1" class="cluster">
<title>cluster_Presentation Layer</title>
<path fill="#e6f3ff" stroke="#aeb6be" d="M378,-1112.2C378,-1112.2 816,-1112.2 816,-1112.2 822,-1112.2 828,-1118.2 828,-1124.2 828,-1124.2 828,-1334.35 828,-1334.35 828,-1340.35 822,-1346.35 816,-1346.35 816,-1346.35 378,-1346.35 378,-1346.35 372,-1346.35 366,-1340.35 366,-1334.35 366,-1334.35 366,-1124.2 366,-1124.2 366,-1118.2 372,-1112.2 378,-1112.2"/>
<text xml:space="preserve" text-anchor="middle" x="422.75" y="-1330.95" font-family="Sans-Serif" font-size="12.00" fill="#2d3436">Presentation Layer</text>
</g>
<g id="clust2" class="cluster">
<title>cluster_Application Layer</title>
<path fill="#f0f8e6" stroke="#aeb6be" d="M294,-402.4C294,-402.4 732,-402.4 732,-402.4 738,-402.4 744,-408.4 744,-414.4 744,-414.4 744,-979.45 744,-979.45 744,-985.45 738,-991.45 732,-991.45 732,-991.45 294,-991.45 294,-991.45 288,-991.45 282,-985.45 282,-979.45 282,-979.45 282,-414.4 282,-414.4 282,-408.4 288,-402.4 294,-402.4"/>
<text xml:space="preserve" text-anchor="middle" x="335.38" y="-976.05" font-family="Sans-Serif" font-size="12.00" fill="#2d3436">Application Layer</text>
</g>
<g id="clust3" class="cluster">
<title>cluster_Data Layer</title>
<path fill="#fff0f5" stroke="#aeb6be" d="M539,-47.5C539,-47.5 977,-47.5 977,-47.5 983,-47.5 989,-53.5 989,-59.5 989,-59.5 989,-269.65 989,-269.65 989,-275.65 983,-281.65 977,-281.65 977,-281.65 539,-281.65 539,-281.65 533,-281.65 527,-275.65 527,-269.65 527,-269.65 527,-59.5 527,-59.5 527,-53.5 533,-47.5 539,-47.5"/>
<text xml:space="preserve" text-anchor="middle" x="563.12" y="-266.25" font-family="Sans-Serif" font-size="12.00" fill="#2d3436">Data Layer</text>
</g>
<g id="clust4" class="cluster">
<title>cluster_Infrastructure Layer</title>
<path fill="#f5f0ff" stroke="#aeb6be" d="M1009,-47.5C1009,-47.5 1274,-47.5 1274,-47.5 1280,-47.5 1286,-53.5 1286,-59.5 1286,-59.5 1286,-624.55 1286,-624.55 1286,-630.55 1280,-636.55 1274,-636.55 1274,-636.55 1009,-636.55 1009,-636.55 1003,-636.55 997,-630.55 997,-624.55 997,-624.55 997,-59.5 997,-59.5 997,-53.5 1003,-47.5 1009,-47.5"/>
<text xml:space="preserve" text-anchor="middle" x="1057.12" y="-621.15" font-family="Sans-Serif" font-size="12.00" fill="#2d3436">Infrastructure Layer</text>
</g>
<g id="clust5" class="cluster">
<title>cluster_Monitoring &amp; Quality</title>
<path fill="#ffe6e6" stroke="#aeb6be" d="M20,-47.5C20,-47.5 458,-47.5 458,-47.5 464,-47.5 470,-53.5 470,-59.5 470,-59.5 470,-269.65 470,-269.65 470,-275.65 464,-281.65 458,-281.65 458,-281.65 20,-281.65 20,-281.65 14,-281.65 8,-275.65 8,-269.65 8,-269.65 8,-59.5 8,-59.5 8,-53.5 14,-47.5 20,-47.5"/>
<text xml:space="preserve" text-anchor="middle" x="70.75" y="-266.25" font-family="Sans-Serif" font-size="12.00" fill="#2d3436">Monitoring &amp; Quality</text>
</g>
<!-- 079e42726ac347118196a4ad28d81e8f -->
<g id="node1" class="node">
<title>079e42726ac347118196a4ad28d81e8f</title>
<image xlink:href="D:\Data Engineering\Projects\news_intelligence\.venv\Lib\site-packages\resources/programming/language\python.png" width="100.8px" height="100.8px" preserveAspectRatio="xMinYMin meet" x="373.6" y="-1267.8"/>
<text xml:space="preserve" text-anchor="middle" x="424" y="-1154.15" font-family="Arial Bold" font-size="14.00" fill="#2d3436">Streamlit 1.31</text>
<text xml:space="preserve" text-anchor="middle" x="424" y="-1138.4" font-family="Arial Bold" font-size="14.00" fill="#2d3436">• Interactive UI</text>
<text xml:space="preserve" text-anchor="middle" x="424" y="-1122.65" font-family="Arial Bold" font-size="14.00" fill="#2d3436">• Real&#45;time Updates</text>
</g>
<!-- 416f6e73ce7f4652936149c7c4674412 -->
<g id="node4" class="node">
<title>416f6e73ce7f4652936149c7c4674412</title>
<image xlink:href="D:\Data Engineering\Projects\news_intelligence\.venv\Lib\site-packages\resources/programming/language\python.png" width="100.8px" height="100.8px" preserveAspectRatio="xMinYMin meet" x="546.6" y="-912.9"/>
<text xml:space="preserve" text-anchor="middle" x="597" y="-799.25" font-family="Arial Bold" font-size="14.00" fill="#2d3436">Python 3.11.9</text>
<text xml:space="preserve" text-anchor="middle" x="597" y="-783.5" font-family="Arial Bold" font-size="14.00" fill="#2d3436">• Core Language</text>
<text xml:space="preserve" text-anchor="middle" x="597" y="-767.75" font-family="Arial Bold" font-size="14.00" fill="#2d3436">• Async Support</text>
</g>
<!-- 079e42726ac347118196a4ad28d81e8f&#45;&gt;416f6e73ce7f4652936149c7c4674412 -->
<g id="edge1" class="edge">
<title>079e42726ac347118196a4ad28d81e8f&#45;&gt;416f6e73ce7f4652936149c7c4674412</title>
<path fill="none" stroke="#e74c3c" d="M468.5,-1120.61C468.5,-1030.99 468.5,-911.5 468.5,-911.5 468.5,-911.5 535.44,-911.5 535.44,-911.5"/>
<polygon fill="#e74c3c" stroke="#e74c3c" points="535.44,-915 545.44,-911.5 535.44,-908 535.44,-915"/>
<text xml:space="preserve" text-anchor="middle" x="471.88" y="-1035.85" font-family="Sans-Serif" font-size="13.00" fill="#2d3436">Renders UI</text>
</g>
<!-- ddd7f3adfafe4ac8b2f9e1615e104166 -->
<g id="node2" class="node">
<title>ddd7f3adfafe4ac8b2f9e1615e104166</title>
<image xlink:href="D:\Data Engineering\Projects\news_intelligence\.venv\Lib\site-packages\resources/programming/language\python.png" width="100.8px" height="100.8px" preserveAspectRatio="xMinYMin meet" x="546.6" y="-1267.8"/>
<text xml:space="preserve" text-anchor="middle" x="597" y="-1154.15" font-family="Arial Bold" font-size="14.00" fill="#2d3436">Plotly 5.18</text>
<text xml:space="preserve" text-anchor="middle" x="597" y="-1138.4" font-family="Arial Bold" font-size="14.00" fill="#2d3436">• Data Visualization</text>
<text xml:space="preserve" text-anchor="middle" x="597" y="-1122.65" font-family="Arial Bold" font-size="14.00" fill="#2d3436">• Interactive Charts</text>
</g>
<!-- ddd7f3adfafe4ac8b2f9e1615e104166&#45;&gt;416f6e73ce7f4652936149c7c4674412 -->
<g id="edge2" class="edge">
<title>ddd7f3adfafe4ac8b2f9e1615e104166&#45;&gt;416f6e73ce7f4652936149c7c4674412</title>
<path fill="none" stroke="#3498db" d="M597,-1120.42C597,-1120.42 597,-971.18 597,-971.18"/>
<polygon fill="#3498db" stroke="#3498db" points="600.5,-971.18 597,-961.18 593.5,-971.18 600.5,-971.18"/>
<text xml:space="preserve" text-anchor="middle" x="635.62" y="-1035.85" font-family="Sans-Serif" font-size="13.00" fill="#2d3436">Visualizations</text>
</g>
<!-- d963c139e0904002a896598038be6993 -->
<g id="node3" class="node">
<title>d963c139e0904002a896598038be6993</title>
<image xlink:href="D:\Data Engineering\Projects\news_intelligence\.venv\Lib\site-packages\resources/programming/language\python.png" width="100.8px" height="100.8px" preserveAspectRatio="xMinYMin meet" x="719.6" y="-1267.8"/>
<text xml:space="preserve" text-anchor="middle" x="770" y="-1154.15" font-family="Arial Bold" font-size="14.00" fill="#2d3436">Custom Styling</text>
<text xml:space="preserve" text-anchor="middle" x="770" y="-1138.4" font-family="Arial Bold" font-size="14.00" fill="#2d3436">• Professional Theme</text>
<text xml:space="preserve" text-anchor="middle" x="770" y="-1122.65" font-family="Arial Bold" font-size="14.00" fill="#2d3436">• Responsive Design</text>
</g>
<!-- d963c139e0904002a896598038be6993&#45;&gt;416f6e73ce7f4652936149c7c4674412 -->
<g id="edge3" class="edge">
<title>d963c139e0904002a896598038be6993&#45;&gt;416f6e73ce7f4652936149c7c4674412</title>
<path fill="none" stroke="#9b59b6" d="M728,-1120.61C728,-1030.99 728,-911.5 728,-911.5 728,-911.5 658.79,-911.5 658.79,-911.5"/>
<polygon fill="#9b59b6" stroke="#9b59b6" points="658.79,-908 648.79,-911.5 658.79,-915 658.79,-908"/>
<text xml:space="preserve" text-anchor="middle" x="779.88" y="-1035.85" font-family="Sans-Serif" font-size="13.00" fill="#2d3436">Styling</text>
</g>
<!-- 28953399ff064d43a90b762e74b248cb -->
<g id="node5" class="node">
<title>28953399ff064d43a90b762e74b248cb</title>
<image xlink:href="D:\Data Engineering\Projects\news_intelligence\.venv\Lib\site-packages\resources/programming/language\python.png" width="100.8px" height="100.8px" preserveAspectRatio="xMinYMin meet" x="635.6" y="-558"/>
<text xml:space="preserve" text-anchor="middle" x="686" y="-444.35" font-family="Arial Bold" font-size="14.00" fill="#2d3436">Pandas 2.2</text>
<text xml:space="preserve" text-anchor="middle" x="686" y="-428.6" font-family="Arial Bold" font-size="14.00" fill="#2d3436">• Data Manipulation</text>
<text xml:space="preserve" text-anchor="middle" x="686" y="-412.85" font-family="Arial Bold" font-size="14.00" fill="#2d3436">• High Performance</text>
</g>
<!-- 416f6e73ce7f4652936149c7c4674412&#45;&gt;28953399ff064d43a90b762e74b248cb -->
<g id="edge4" class="edge">
<title>416f6e73ce7f4652936149c7c4674412&#45;&gt;28953399ff064d43a90b762e74b248cb</title>
<path fill="none" stroke="#2ecc71" d="M641.5,-765.52C641.5,-765.52 641.5,-616.28 641.5,-616.28"/>
<polygon fill="#2ecc71" stroke="#2ecc71" points="645,-616.28 641.5,-606.28 638,-616.28 645,-616.28"/>
<text xml:space="preserve" text-anchor="middle" x="700.62" y="-680.95" font-family="Sans-Serif" font-size="13.00" fill="#2d3436">Data Ops</text>
</g>
<!-- 69d90a427fa64ddab28911f050223a51 -->
<g id="node6" class="node">
<title>69d90a427fa64ddab28911f050223a51</title>
<image xlink:href="D:\Data Engineering\Projects\news_intelligence\.venv\Lib\site-packages\resources/programming/language\python.png" width="100.8px" height="100.8px" preserveAspectRatio="xMinYMin meet" x="462.6" y="-558"/>
<text xml:space="preserve" text-anchor="middle" x="513" y="-444.35" font-family="Arial Bold" font-size="14.00" fill="#2d3436">TextBlob 0.17</text>
<text xml:space="preserve" text-anchor="middle" x="513" y="-428.6" font-family="Arial Bold" font-size="14.00" fill="#2d3436">• NLP Processing</text>
<text xml:space="preserve" text-anchor="middle" x="513" y="-412.85" font-family="Arial Bold" font-size="14.00" fill="#2d3436">• Sentiment Analysis</text>
</g>
<!-- 416f6e73ce7f4652936149c7c4674412&#45;&gt;69d90a427fa64ddab28911f050223a51 -->
<g id="edge5" class="edge">
<title>416f6e73ce7f4652936149c7c4674412&#45;&gt;69d90a427fa64ddab28911f050223a51</title>
<path fill="none" stroke="#f39c12" d="M555,-765.52C555,-765.52 555,-616.28 555,-616.28"/>
<polygon fill="#f39c12" stroke="#f39c12" points="558.5,-616.28 555,-606.28 551.5,-616.28 558.5,-616.28"/>
<text xml:space="preserve" text-anchor="middle" x="550.25" y="-680.95" font-family="Sans-Serif" font-size="13.00" fill="#2d3436">NLP Tasks</text>
</g>
<!-- 9a563db12a19460ebb138c597b3475de -->
<g id="node7" class="node">
<title>9a563db12a19460ebb138c597b3475de</title>
<image xlink:href="D:\Data Engineering\Projects\news_intelligence\.venv\Lib\site-packages\resources/programming/language\python.png" width="100.8px" height="100.8px" preserveAspectRatio="xMinYMin meet" x="289.6" y="-558"/>
<text xml:space="preserve" text-anchor="middle" x="340" y="-444.35" font-family="Arial Bold" font-size="14.00" fill="#2d3436">Requests 2.31</text>
<text xml:space="preserve" text-anchor="middle" x="340" y="-428.6" font-family="Arial Bold" font-size="14.00" fill="#2d3436">• HTTP Client</text>
<text xml:space="preserve" text-anchor="middle" x="340" y="-412.85" font-family="Arial Bold" font-size="14.00" fill="#2d3436">• API Integration</text>
</g>
<!-- 416f6e73ce7f4652936149c7c4674412&#45;&gt;9a563db12a19460ebb138c597b3475de -->
<g id="edge6" class="edge">
<title>416f6e73ce7f4652936149c7c4674412&#45;&gt;9a563db12a19460ebb138c597b3475de</title>
<path fill="none" stroke="#1abc9c" d="M546.86,-813.5C483.33,-813.5 382,-813.5 382,-813.5 382,-813.5 382,-615.9 382,-615.9"/>
<polygon fill="#1abc9c" stroke="#1abc9c" points="385.5,-615.9 382,-605.9 378.5,-615.9 385.5,-615.9"/>
<text xml:space="preserve" text-anchor="middle" x="402.75" y="-680.95" font-family="Sans-Serif" font-size="13.00" fill="#2d3436">API Calls</text>
</g>
<!-- 87144e736c854cecb31ed10c6a77be24 -->
<g id="node11" class="node">
<title>87144e736c854cecb31ed10c6a77be24</title>
<image xlink:href="D:\Data Engineering\Projects\news_intelligence\.venv\Lib\site-packages\resources/aws/compute\elastic-container-service.png" width="100.8px" height="100.8px" preserveAspectRatio="xMinYMin meet" x="1004.6" y="-558"/>
<text xml:space="preserve" text-anchor="middle" x="1055" y="-444.35" font-family="Arial Bold" font-size="14.00" fill="#2d3436">Docker</text>
<text xml:space="preserve" text-anchor="middle" x="1055" y="-428.6" font-family="Arial Bold" font-size="14.00" fill="#2d3436">• Containerization</text>
<text xml:space="preserve" text-anchor="middle" x="1055" y="-412.85" font-family="Arial Bold" font-size="14.00" fill="#2d3436">• Multi&#45;stage Builds</text>
</g>
<!-- 416f6e73ce7f4652936149c7c4674412&#45;&gt;87144e736c854cecb31ed10c6a77be24 -->
<g id="edge10" class="edge">
<title>416f6e73ce7f4652936149c7c4674412&#45;&gt;87144e736c854cecb31ed10c6a77be24</title>
<path fill="none" stroke="#e67e22" d="M647.32,-813.5C766.3,-813.5 1055,-813.5 1055,-813.5 1055,-813.5 1055,-615.9 1055,-615.9"/>
<polygon fill="#e67e22" stroke="#e67e22" points="1058.5,-615.9 1055,-605.9 1051.5,-615.9 1058.5,-615.9"/>
<text xml:space="preserve" text-anchor="middle" x="991" y="-680.95" font-family="Sans-Serif" font-size="13.00" fill="#2d3436">Containerized</text>
</g>
<!-- ce6a00abc3814ca6b545a43e29fe493e -->
<g id="node12" class="node">
<title>ce6a00abc3814ca6b545a43e29fe493e</title>
<image xlink:href="D:\Data Engineering\Projects\news_intelligence\.venv\Lib\site-packages\resources/aws/compute\lambda.png" width="100.8px" height="100.8px" preserveAspectRatio="xMinYMin meet" x="1177.6" y="-558"/>
<text xml:space="preserve" text-anchor="middle" x="1228" y="-444.35" font-family="Arial Bold" font-size="14.00" fill="#2d3436">GitHub Actions</text>
<text xml:space="preserve" text-anchor="middle" x="1228" y="-428.6" font-family="Arial Bold" font-size="14.00" fill="#2d3436">• CI/CD Pipeline</text>
<text xml:space="preserve" text-anchor="middle" x="1228" y="-412.85" font-family="Arial Bold" font-size="14.00" fill="#2d3436">• Automated Testing</text>
</g>
<!-- 416f6e73ce7f4652936149c7c4674412&#45;&gt;ce6a00abc3814ca6b545a43e29fe493e -->
<g id="edge11" class="edge">
<title>416f6e73ce7f4652936149c7c4674412&#45;&gt;ce6a00abc3814ca6b545a43e29fe493e</title>
<path fill="none" stroke="#8e44ad" d="M647.31,-862.5C796.8,-862.5 1228,-862.5 1228,-862.5 1228,-862.5 1228,-616.09 1228,-616.09"/>
<polygon fill="#8e44ad" stroke="#8e44ad" points="1231.5,-616.09 1228,-606.09 1224.5,-616.09 1231.5,-616.09"/>
<text xml:space="preserve" text-anchor="middle" x="1206.88" y="-680.95" font-family="Sans-Serif" font-size="13.00" fill="#2d3436">CI/CD</text>
</g>
<!-- f64e2d75877c414883ff1f2d31ff5f73 -->
<g id="node14" class="node">
<title>f64e2d75877c414883ff1f2d31ff5f73</title>
<image xlink:href="D:\Data Engineering\Projects\news_intelligence\.venv\Lib\site-packages\resources/onprem/monitoring\prometheus.png" width="100.8px" height="100.8px" preserveAspectRatio="xMinYMin meet" x="15.6" y="-203.1"/>
<text xml:space="preserve" text-anchor="middle" x="66" y="-89.45" font-family="Arial Bold" font-size="14.00" fill="#2d3436">Structured Logging</text>
<text xml:space="preserve" text-anchor="middle" x="66" y="-73.7" font-family="Arial Bold" font-size="14.00" fill="#2d3436">• Performance Metrics</text>
<text xml:space="preserve" text-anchor="middle" x="66" y="-57.95" font-family="Arial Bold" font-size="14.00" fill="#2d3436">• Error Tracking</text>
</g>
<!-- 416f6e73ce7f4652936149c7c4674412&#45;&gt;f64e2d75877c414883ff1f2d31ff5f73 -->
<g id="edge13" class="edge">
<title>416f6e73ce7f4652936149c7c4674412&#45;&gt;f64e2d75877c414883ff1f2d31ff5f73</title>
<path fill="none" stroke="#95a5a6" stroke-dasharray="5,2" d="M547.04,-862.5C414.86,-862.5 66,-862.5 66,-862.5 66,-862.5 66,-261.05 66,-261.05"/>
<polygon fill="#95a5a6" stroke="#95a5a6" points="69.5,-261.05 66,-251.05 62.5,-261.05 69.5,-261.05"/>
<text xml:space="preserve" text-anchor="middle" x="147.5" y="-503.5" font-family="Sans-Serif" font-size="13.00" fill="#2d3436">Logs</text>
</g>
<!-- 52be04ef8328474b9dee75c7d0fe9c8e -->
<g id="node8" class="node">
<title>52be04ef8328474b9dee75c7d0fe9c8e</title>
<image xlink:href="D:\Data Engineering\Projects\news_intelligence\.venv\Lib\site-packages\resources/generic/database\sql.png" width="100.8px" height="100.8px" preserveAspectRatio="xMinYMin meet" x="707.6" y="-203.1"/>
<text xml:space="preserve" text-anchor="middle" x="758" y="-89.45" font-family="Arial Bold" font-size="14.00" fill="#2d3436">SQLite</text>
<text xml:space="preserve" text-anchor="middle" x="758" y="-73.7" font-family="Arial Bold" font-size="14.00" fill="#2d3436">• Local Development</text>
<text xml:space="preserve" text-anchor="middle" x="758" y="-57.95" font-family="Arial Bold" font-size="14.00" fill="#2d3436">• File&#45;based Storage</text>
</g>
<!-- 28953399ff064d43a90b762e74b248cb&#45;&gt;52be04ef8328474b9dee75c7d0fe9c8e -->
<g id="edge7" class="edge">
<title>28953399ff064d43a90b762e74b248cb&#45;&gt;52be04ef8328474b9dee75c7d0fe9c8e</title>
<path fill="none" stroke="#34495e" d="M722,-410.62C722,-410.62 722,-261.38 722,-261.38"/>
<polygon fill="#34495e" stroke="#34495e" points="725.5,-261.38 722,-251.38 718.5,-261.38 725.5,-261.38"/>
<text xml:space="preserve" text-anchor="middle" x="786.25" y="-326.05" font-family="Sans-Serif" font-size="13.00" fill="#2d3436">Dev Storage</text>
</g>
<!-- 53a1833bb75d4b1d92c61e7317164677 -->
<g id="node9" class="node">
<title>53a1833bb75d4b1d92c61e7317164677</title>
<image xlink:href="D:\Data Engineering\Projects\news_intelligence\.venv\Lib\site-packages\resources/onprem/database\postgresql.png" width="100.8px" height="100.8px" preserveAspectRatio="xMinYMin meet" x="880.6" y="-203.1"/>
<text xml:space="preserve" text-anchor="middle" x="931" y="-89.45" font-family="Arial Bold" font-size="14.00" fill="#2d3436">PostgreSQL 15</text>
<text xml:space="preserve" text-anchor="middle" x="931" y="-73.7" font-family="Arial Bold" font-size="14.00" fill="#2d3436">• Production Database</text>
<text xml:space="preserve" text-anchor="middle" x="931" y="-57.95" font-family="Arial Bold" font-size="14.00" fill="#2d3436">• ACID Compliance</text>
</g>
<!-- 28953399ff064d43a90b762e74b248cb&#45;&gt;53a1833bb75d4b1d92c61e7317164677 -->
<g id="edge8" class="edge">
<title>28953399ff064d43a90b762e74b248cb&#45;&gt;53a1833bb75d4b1d92c61e7317164677</title>
<path fill="none" stroke="#2c3e50" d="M736.17,-507.5C807.85,-507.5 931,-507.5 931,-507.5 931,-507.5 931,-261.16 931,-261.16"/>
<polygon fill="#2c3e50" stroke="#2c3e50" points="934.5,-261.16 931,-251.16 927.5,-261.16 934.5,-261.16"/>
<text xml:space="preserve" text-anchor="middle" x="946.12" y="-326.05" font-family="Sans-Serif" font-size="13.00" fill="#2d3436">Prod Storage</text>
</g>
<!-- 5ee63d998a5c400caebf24d98f5c0347 -->
<g id="node10" class="node">
<title>5ee63d998a5c400caebf24d98f5c0347</title>
<image xlink:href="D:\Data Engineering\Projects\news_intelligence\.venv\Lib\site-packages\resources/generic/database\sql.png" width="100.8px" height="100.8px" preserveAspectRatio="xMinYMin meet" x="534.6" y="-203.1"/>
<text xml:space="preserve" text-anchor="middle" x="585" y="-89.45" font-family="Arial Bold" font-size="14.00" fill="#2d3436">Query Optimization</text>
<text xml:space="preserve" text-anchor="middle" x="585" y="-73.7" font-family="Arial Bold" font-size="14.00" fill="#2d3436">• Indexing Strategy</text>
<text xml:space="preserve" text-anchor="middle" x="585" y="-57.95" font-family="Arial Bold" font-size="14.00" fill="#2d3436">• Performance Tuning</text>
</g>
<!-- 28953399ff064d43a90b762e74b248cb&#45;&gt;5ee63d998a5c400caebf24d98f5c0347 -->
<g id="edge9" class="edge">
<title>28953399ff064d43a90b762e74b248cb&#45;&gt;5ee63d998a5c400caebf24d98f5c0347</title>
<path fill="none" stroke="#7f8c8d" d="M683.6,-410.57C683.6,-305.43 683.6,-152.5 683.6,-152.5 683.6,-152.5 646.68,-152.5 646.68,-152.5"/>
<polygon fill="#7f8c8d" stroke="#7f8c8d" points="646.68,-149 636.68,-152.5 646.68,-156 646.68,-149"/>
<text xml:space="preserve" text-anchor="middle" x="626.38" y="-326.05" font-family="Sans-Serif" font-size="13.00" fill="#2d3436">Optimization</text>
</g>
<!-- 3989828c546149f7ac0de4efd729c583 -->
<g id="node16" class="node">
<title>3989828c546149f7ac0de4efd729c583</title>
<image xlink:href="D:\Data Engineering\Projects\news_intelligence\.venv\Lib\site-packages\resources/generic/compute\rack.png" width="100.8px" height="100.8px" preserveAspectRatio="xMinYMin meet" x="361.6" y="-203.1"/>
<text xml:space="preserve" text-anchor="middle" x="412" y="-89.45" font-family="Arial Bold" font-size="14.00" fill="#2d3436">Quality Assurance</text>
<text xml:space="preserve" text-anchor="middle" x="412" y="-73.7" font-family="Arial Bold" font-size="14.00" fill="#2d3436">• Data Validation</text>
<text xml:space="preserve" text-anchor="middle" x="412" y="-57.95" font-family="Arial Bold" font-size="14.00" fill="#2d3436">• Automated Testing</text>
</g>
<!-- 28953399ff064d43a90b762e74b248cb&#45;&gt;3989828c546149f7ac0de4efd729c583 -->
<g id="edge15" class="edge">
<title>28953399ff064d43a90b762e74b248cb&#45;&gt;3989828c546149f7ac0de4efd729c583</title>
<path fill="none" stroke="#d35400" stroke-dasharray="5,2" d="M659.6,-410.5C659.6,-369.25 659.6,-330.5 659.6,-330.5 659.6,-330.5 426.4,-330.5 426.4,-330.5 426.4,-330.5 426.4,-261.18 426.4,-261.18"/>
<polygon fill="#d35400" stroke="#d35400" points="429.9,-261.18 426.4,-251.18 422.9,-261.18 429.9,-261.18"/>
<text xml:space="preserve" text-anchor="middle" x="459.25" y="-326.05" font-family="Sans-Serif" font-size="13.00" fill="#2d3436">Quality</text>
</g>
<!-- d50ddbd5e5364d55a1302afd6220552d -->
<g id="node15" class="node">
<title>d50ddbd5e5364d55a1302afd6220552d</title>
<image xlink:href="D:\Data Engineering\Projects\news_intelligence\.venv\Lib\site-packages\resources/generic/network\firewall.png" width="100.8px" height="100.8px" preserveAspectRatio="xMinYMin meet" x="188.6" y="-203.1"/>
<text xml:space="preserve" text-anchor="middle" x="239" y="-89.45" font-family="Arial Bold" font-size="14.00" fill="#2d3436">Security Layer</text>
<text xml:space="preserve" text-anchor="middle" x="239" y="-73.7" font-family="Arial Bold" font-size="14.00" fill="#2d3436">• Input Validation</text>
<text xml:space="preserve" text-anchor="middle" x="239" y="-57.95" font-family="Arial Bold" font-size="14.00" fill="#2d3436">• API Authentication</text>
</g>
<!-- 9a563db12a19460ebb138c597b3475de&#45;&gt;d50ddbd5e5364d55a1302afd6220552d -->
<g id="edge14" class="edge">
<title>9a563db12a19460ebb138c597b3475de&#45;&gt;d50ddbd5e5364d55a1302afd6220552d</title>
<path fill="none" stroke="#c0392b" stroke-dasharray="5,2" d="M325.6,-410.57C325.6,-305.43 325.6,-152.5 325.6,-152.5 325.6,-152.5 300.89,-152.5 300.89,-152.5"/>
<polygon fill="#c0392b" stroke="#c0392b" points="300.89,-149 290.89,-152.5 300.89,-156 300.89,-149"/>
<text xml:space="preserve" text-anchor="middle" x="300.25" y="-326.05" font-family="Sans-Serif" font-size="13.00" fill="#2d3436">Security</text>
</g>
<!-- 0c2bca693f4143ff94c35549ce7f9f42 -->
<g id="node13" class="node">
<title>0c2bca693f4143ff94c35549ce7f9f42</title>
<image xlink:href="D:\Data Engineering\Projects\news_intelligence\.venv\Lib\site-packages\resources/aws/compute\elastic-container-service.png" width="100.8px" height="100.8px" preserveAspectRatio="xMinYMin meet" x="1053.6" y="-203.1"/>
<text xml:space="preserve" text-anchor="middle" x="1104" y="-89.45" font-family="Arial Bold" font-size="14.00" fill="#2d3436">Cloud Services</text>
<text xml:space="preserve" text-anchor="middle" x="1104" y="-73.7" font-family="Arial Bold" font-size="14.00" fill="#2d3436">• AWS/Azure/GCP</text>
<text xml:space="preserve" text-anchor="middle" x="1104" y="-57.95" font-family="Arial Bold" font-size="14.00" fill="#2d3436">• Auto Scaling</text>
</g>
<!-- 87144e736c854cecb31ed10c6a77be24&#45;&gt;0c2bca693f4143ff94c35549ce7f9f42 -->
<g id="edge12" class="edge">
<title>87144e736c854cecb31ed10c6a77be24&#45;&gt;0c2bca693f4143ff94c35549ce7f9f42</title>
<path fill="none" stroke="#16a085" d="M1079.5,-410.62C1079.5,-410.62 1079.5,-261.38 1079.5,-261.38"/>
<polygon fill="#16a085" stroke="#16a085" points="1083,-261.38 1079.5,-251.38 1076,-261.38 1083,-261.38"/>
<text xml:space="preserve" text-anchor="middle" x="1117" y="-326.05" font-family="Sans-Serif" font-size="13.00" fill="#2d3436">Deployed</text>
</g>
</g>
</svg>
